<?xml version="1.0" encoding="utf-8"?>
<!-- Generator: Adobe Illustrator 17.1.0, SVG Export Plug-In . SVG Version: 6.00 Build 0)  -->
<!DOCTYPE svg PUBLIC "-//W3C//DTD SVG 1.1//EN" "http://www.w3.org/Graphics/SVG/1.1/DTD/svg11.dtd">
<svg version="1.1" id="Слой_1" xmlns="http://www.w3.org/2000/svg" xmlns:xlink="http://www.w3.org/1999/xlink" x="0px" y="0px"
	 viewBox="0 0 841.9 595.3" enable-background="new 0 0 841.9 595.3" xml:space="preserve">
<path fill="#002B32" d="M248.3-185.3L248.3-185.3L248.3-185.3C248.3-185.3,248.3-185.3,248.3-185.3z"/>
<path fill="#002B32" d="M248.6-185.3L248.6-185.3L248.6-185.3C248.5-185.3,248.5-185.3,248.6-185.3z"/>
<path fill="#002B32" d="M247.7-185.3h0.6c-0.1,0-0.3,0.1-0.6,0.2V-185.3z"/>
<path fill="#002B32" d="M248.3-185.3C248.3-185.3,248.3-185.3,248.3-185.3L248.3-185.3L248.3-185.3z"/>
<path fill="#002B32" d="M248.5-185.3C248.5-185.3,248.5-185.3,248.5-185.3L248.5-185.3L248.5-185.3z"/>
<path fill="#002B32" d="M249-185.3v0.1c-0.2-0.1-0.4-0.1-0.5-0.1H249z"/>
<path fill="#002B32" d="M248.3-185.3C248.3-185.3,248.3-185.3,248.3-185.3L248.3-185.3L248.3-185.3z"/>
<path fill="#002B32" d="M248.6-185.3L248.6-185.3L248.6-185.3C248.5-185.3,248.5-185.3,248.6-185.3z"/>
<g>
	<polygon fill="none" stroke="#6EC2BF" stroke-width="4" stroke-miterlimit="10" points="459.5,-126.3 380.6,-80.7 301.8,-126.3 
		301.8,-217.3 380.6,-262.8 459.5,-217.3 	"/>
	<g>
		<g>
			<path d="M330-162.6h7.9c0.5,0,0.9-0.2,1.2-0.5s0.5-0.7,0.5-1.2c0-0.5-0.2-0.9-0.5-1.2c-0.3-0.3-0.7-0.5-1.2-0.5h-10.8v9.3h-2.6
				v-11.9l13.4,0c0.6,0,1.1,0.1,1.7,0.3c0.5,0.2,1,0.5,1.4,0.9c0.4,0.4,0.7,0.8,0.9,1.4c0.2,0.5,0.3,1.1,0.3,1.7
				c0,0.6-0.1,1.2-0.3,1.7c-0.2,0.5-0.5,1-0.9,1.4c-0.4,0.4-0.8,0.7-1.4,0.9c-0.5,0.2-1.1,0.3-1.7,0.3h-1.5l5.7,3.3h-5.1l-7.4-4.4
				c-0.2-0.1-0.3-0.2-0.4-0.4c-0.1-0.2-0.1-0.4,0-0.5s0.1-0.3,0.3-0.4C329.6-162.5,329.8-162.6,330-162.6z"/>
			<path d="M360.3-159.2v2.6H347c-0.6,0-1.1-0.1-1.7-0.3c-0.5-0.2-1-0.5-1.4-0.9c-0.4-0.4-0.7-0.8-0.9-1.4c-0.2-0.5-0.3-1.1-0.3-1.7
				v-3.3c0-0.6,0.1-1.1,0.3-1.7c0.2-0.5,0.5-1,0.9-1.4c0.4-0.4,0.8-0.7,1.4-0.9c0.5-0.2,1.1-0.3,1.7-0.3l13.4,0v2.6H347
				c-0.5,0-0.9,0.2-1.2,0.5c-0.3,0.3-0.5,0.7-0.5,1.2v0.3h14.2v2.6h-14.2v0.4c0,0.5,0.2,0.9,0.5,1.2c0.3,0.3,0.7,0.5,1.2,0.5H360.3z
				"/>
			<path d="M378.8-159.2v2.6h-13.4c-0.6,0-1.1-0.1-1.7-0.3c-0.5-0.2-1-0.5-1.4-0.9c-0.4-0.4-0.7-0.8-0.9-1.4
				c-0.2-0.5-0.3-1.1-0.3-1.7v-3.3c0-0.6,0.1-1.1,0.3-1.7c0.2-0.5,0.5-1,0.9-1.4c0.4-0.4,0.8-0.7,1.4-0.9c0.5-0.2,1.1-0.3,1.7-0.3
				l13.4,0v2.6h-13.4c-0.5,0-0.9,0.2-1.2,0.5c-0.3,0.3-0.5,0.7-0.5,1.2v3.3c0,0.5,0.2,0.9,0.5,1.2c0.3,0.3,0.7,0.5,1.2,0.5H378.8z"
				/>
			<path d="M385.6-156.6c-0.8,0-1.6-0.2-2.3-0.5c-0.7-0.3-1.3-0.7-1.9-1.3c-0.5-0.5-1-1.2-1.3-1.9c-0.3-0.7-0.5-1.5-0.5-2.3
				c0-0.8,0.2-1.6,0.5-2.3c0.3-0.7,0.7-1.4,1.3-1.9c0.5-0.5,1.2-1,1.9-1.3c0.7-0.3,1.5-0.5,2.3-0.5h8.9c0.8,0,1.6,0.2,2.3,0.5
				c0.7,0.3,1.4,0.7,1.9,1.3c0.5,0.5,1,1.2,1.3,1.9c0.3,0.7,0.5,1.5,0.5,2.3c0,0.8-0.2,1.6-0.5,2.3c-0.3,0.7-0.7,1.3-1.3,1.9
				c-0.5,0.5-1.2,1-1.9,1.3c-0.7,0.3-1.5,0.5-2.3,0.5H385.6z M394.5-159.2c0.5,0,0.9-0.1,1.3-0.3s0.8-0.4,1.1-0.7
				c0.3-0.3,0.5-0.7,0.7-1.1c0.2-0.4,0.3-0.8,0.3-1.3c0-0.5-0.1-0.9-0.3-1.3c-0.2-0.4-0.4-0.8-0.7-1.1c-0.3-0.3-0.7-0.5-1.1-0.7
				c-0.4-0.2-0.8-0.3-1.3-0.3h-8.9c-0.5,0-0.9,0.1-1.3,0.3c-0.4,0.2-0.8,0.4-1.1,0.7c-0.3,0.3-0.5,0.7-0.7,1.1
				c-0.2,0.4-0.3,0.8-0.3,1.3c0,0.5,0.1,0.9,0.3,1.3c0.2,0.4,0.4,0.8,0.7,1.1c0.3,0.3,0.7,0.5,1.1,0.7c0.4,0.2,0.8,0.3,1.3,0.3
				H394.5z"/>
			<path d="M406.4-162.6h7.9c0.5,0,0.9-0.2,1.2-0.5c0.3-0.3,0.5-0.7,0.5-1.2c0-0.5-0.2-0.9-0.5-1.2c-0.3-0.3-0.7-0.5-1.2-0.5h-10.8
				v9.3h-2.6v-11.9l13.4,0c0.6,0,1.2,0.1,1.7,0.3c0.5,0.2,1,0.5,1.4,0.9c0.4,0.4,0.7,0.8,0.9,1.4c0.2,0.5,0.3,1.1,0.3,1.7
				c0,0.6-0.1,1.2-0.3,1.7c-0.2,0.5-0.5,1-0.9,1.4c-0.4,0.4-0.8,0.7-1.4,0.9c-0.5,0.2-1.1,0.3-1.7,0.3h-1.5l5.7,3.3h-5.1L406-161
				c-0.2-0.1-0.3-0.2-0.4-0.4c-0.1-0.2-0.1-0.4,0-0.5c0-0.2,0.1-0.3,0.3-0.4C406-162.5,406.2-162.6,406.4-162.6z"/>
			<path d="M436.7-160.9c0,0.6-0.1,1.1-0.3,1.7c-0.2,0.5-0.5,1-0.9,1.4c-0.4,0.4-0.8,0.7-1.4,0.9c-0.5,0.2-1.1,0.3-1.7,0.3h-13.4
				v-11.9l13.4,0c0.6,0,1.1,0.1,1.7,0.3c0.5,0.2,1,0.5,1.4,0.9c0.4,0.4,0.7,0.8,0.9,1.4c0.2,0.5,0.3,1.1,0.3,1.7V-160.9z
				 M432.5-159.2c0.5,0,0.9-0.2,1.2-0.5c0.3-0.3,0.5-0.7,0.5-1.2v-3.3c0-0.5-0.2-0.9-0.5-1.2c-0.3-0.3-0.7-0.5-1.2-0.5h-10.8v6.7
				H432.5z"/>
		</g>
		<path fill="#010101" d="M410.2-199.8c-4.3,0.6-22.7,7.6-25.3,8.5c-0.7-1.3-2.4-2.2-4.3-2.2c-1.9,0-3.6,0.9-4.3,2.2
			c-2.2-0.8-21-7.9-25.3-8.6c-4.6-0.7,27,11.1,27,21.8h5.1C383.2-188.7,414.7-200.5,410.2-199.8z M380.6-184.4
			c-1.2,0-2.2-0.9-2.7-2.2c-0.2-0.5-0.3-1.1-0.3-1.8c0-1.9,1-3.4,2.2-3.9c0.2-0.1,0.4-0.1,0.7-0.1h0.1c0,0,0,0,0.1,0
			c0.2,0,0.4,0,0.5,0.1c1.3,0.4,2.3,2,2.3,3.9c0,0.7-0.1,1.3-0.3,1.8C382.7-185.3,381.8-184.4,380.6-184.4z"/>
		<g>
			<path d="M332.4-150.8c0,0.3,0,0.5-0.1,0.7c-0.1,0.2-0.2,0.4-0.4,0.6c-0.2,0.2-0.4,0.3-0.6,0.4s-0.5,0.1-0.7,0.1h-5.9v-5.3l5.9,0
				c0.3,0,0.5,0,0.7,0.1s0.4,0.2,0.6,0.4c0.2,0.2,0.3,0.4,0.4,0.6s0.1,0.5,0.1,0.7V-150.8z M330.5-150c0.2,0,0.4-0.1,0.5-0.2
				c0.1-0.1,0.2-0.3,0.2-0.5v-1.5c0-0.2-0.1-0.4-0.2-0.5c-0.1-0.1-0.3-0.2-0.5-0.2h-4.8v3H330.5z"/>
			<path d="M335.6-154.2h3.7c0.3,0,0.5,0.1,0.7,0.1s0.4,0.2,0.6,0.4c0.2,0.2,0.3,0.4,0.4,0.6s0.1,0.5,0.1,0.7v3.4H340v-1.3h-5.2v1.3
				h-1.2v-3.4c0-0.3,0-0.5,0.1-0.7s0.2-0.4,0.4-0.6c0.2-0.2,0.4-0.3,0.6-0.4S335.3-154.2,335.6-154.2z M334.8-151.3h5.2v-1
				c0-0.2-0.1-0.4-0.2-0.5c-0.1-0.1-0.3-0.2-0.5-0.2h-3.7c-0.2,0-0.4,0.1-0.5,0.2c-0.1,0.1-0.2,0.3-0.2,0.5V-151.3z"/>
			<path d="M349.7-154.2v4.6c0,0.2,0,0.3-0.1,0.4c-0.1,0.1-0.2,0.2-0.3,0.3c-0.1,0.1-0.3,0.1-0.4,0.1c-0.1,0-0.3-0.1-0.4-0.2
				l-4.7-3.8v3.9h-1.1v-4.6c0-0.2,0-0.3,0.1-0.4c0.1-0.1,0.2-0.2,0.3-0.3c0.1-0.1,0.3-0.1,0.4-0.1c0.1,0,0.3,0.1,0.4,0.2l4.7,3.8
				v-3.8H349.7z"/>
			<path d="M358.9-150v1.2H353c-0.3,0-0.5,0-0.7-0.1c-0.2-0.1-0.4-0.2-0.6-0.4c-0.2-0.2-0.3-0.4-0.4-0.6c-0.1-0.2-0.1-0.5-0.1-0.7
				v-1.5c0-0.3,0-0.5,0.1-0.7s0.2-0.4,0.4-0.6c0.2-0.2,0.4-0.3,0.6-0.4c0.2-0.1,0.5-0.1,0.7-0.1l5.9,0v1.2H353
				c-0.2,0-0.4,0.1-0.5,0.2c-0.1,0.1-0.2,0.3-0.2,0.5v1.5c0,0.2,0.1,0.4,0.2,0.5s0.3,0.2,0.5,0.2H358.9z"/>
			<path d="M368-150v1.2H362c-0.3,0-0.5,0-0.7-0.1s-0.4-0.2-0.6-0.4c-0.2-0.2-0.3-0.4-0.4-0.6c-0.1-0.2-0.1-0.5-0.1-0.7v-1.5
				c0-0.3,0-0.5,0.1-0.7s0.2-0.4,0.4-0.6c0.2-0.2,0.4-0.3,0.6-0.4s0.5-0.1,0.7-0.1l5.9,0v1.2H362c-0.2,0-0.4,0.1-0.5,0.2
				c-0.1,0.1-0.2,0.3-0.2,0.5v0.2h6.3v1.2h-6.3v0.2c0,0.2,0.1,0.4,0.2,0.5c0.1,0.1,0.3,0.2,0.5,0.2H368z"/>
			<path d="M376.1-154.2l2.3,4.2c0.1,0.1,0.2,0.2,0.3,0.2s0.3-0.1,0.3-0.2l1-1.8l-1.3-2.4h1.3l0.7,1.2l0.7-1.2h1.3l-1.3,2.4l1,1.8
				c0,0.1,0.1,0.1,0.1,0.1c0.1,0,0.1,0,0.2,0s0.1,0,0.2,0c0.1,0,0.1-0.1,0.1-0.1l2.3-4.2h1.3l-2.7,4.7c-0.1,0.3-0.3,0.5-0.6,0.6
				c-0.2,0.1-0.5,0.2-0.7,0.2c-0.3,0-0.5-0.1-0.8-0.2c-0.2-0.1-0.4-0.3-0.6-0.6l-0.7-1.2l-0.7,1.2c-0.1,0.3-0.3,0.5-0.6,0.6
				c-0.2,0.1-0.5,0.2-0.8,0.2c-0.3,0-0.5-0.1-0.8-0.2c-0.2-0.1-0.4-0.3-0.6-0.6l-2.7-4.7H376.1z"/>
			<path d="M395.7-150v1.2h-5.9c-0.3,0-0.5,0-0.7-0.1c-0.2-0.1-0.4-0.2-0.6-0.4c-0.2-0.2-0.3-0.4-0.4-0.6c-0.1-0.2-0.1-0.5-0.1-0.7
				v-1.5c0-0.3,0-0.5,0.1-0.7c0.1-0.2,0.2-0.4,0.4-0.6c0.2-0.2,0.4-0.3,0.6-0.4c0.2-0.1,0.5-0.1,0.7-0.1l5.9,0v1.2h-5.9
				c-0.2,0-0.4,0.1-0.5,0.2c-0.1,0.1-0.2,0.3-0.2,0.5v0.2h6.3v1.2H389v0.2c0,0.2,0.1,0.4,0.2,0.5c0.1,0.1,0.3,0.2,0.5,0.2H395.7z"/>
			<path d="M408.8-150v1.2h-4.4c-0.3,0-0.5,0-0.7-0.1c-0.2-0.1-0.4-0.2-0.6-0.4c-0.2-0.2-0.3-0.4-0.4-0.6c-0.1-0.2-0.1-0.5-0.1-0.7
				v-3.4h1.2v3.4c0,0.2,0.1,0.4,0.2,0.5c0.1,0.1,0.3,0.2,0.5,0.2H408.8z"/>
			<path d="M412.4-148.9c-0.4,0-0.7-0.1-1-0.2c-0.3-0.1-0.6-0.3-0.8-0.6c-0.2-0.2-0.4-0.5-0.6-0.8c-0.1-0.3-0.2-0.7-0.2-1
				s0.1-0.7,0.2-1c0.1-0.3,0.3-0.6,0.6-0.8c0.2-0.2,0.5-0.4,0.8-0.6c0.3-0.1,0.7-0.2,1-0.2h3.9c0.4,0,0.7,0.1,1,0.2
				c0.3,0.1,0.6,0.3,0.8,0.6c0.2,0.2,0.4,0.5,0.6,0.8c0.1,0.3,0.2,0.7,0.2,1s-0.1,0.7-0.2,1c-0.1,0.3-0.3,0.6-0.6,0.8
				c-0.2,0.2-0.5,0.4-0.8,0.6c-0.3,0.1-0.7,0.2-1,0.2H412.4z M416.4-150c0.2,0,0.4,0,0.6-0.1c0.2-0.1,0.3-0.2,0.5-0.3
				c0.1-0.1,0.2-0.3,0.3-0.5c0.1-0.2,0.1-0.4,0.1-0.6s0-0.4-0.1-0.6c-0.1-0.2-0.2-0.3-0.3-0.5c-0.1-0.1-0.3-0.2-0.5-0.3
				c-0.2-0.1-0.4-0.1-0.6-0.1h-3.9c-0.2,0-0.4,0-0.6,0.1c-0.2,0.1-0.3,0.2-0.5,0.3c-0.1,0.1-0.2,0.3-0.3,0.5
				c-0.1,0.2-0.1,0.4-0.1,0.6s0,0.4,0.1,0.6c0.1,0.2,0.2,0.3,0.3,0.5c0.1,0.1,0.3,0.2,0.5,0.3c0.2,0.1,0.4,0.1,0.6,0.1H416.4z"/>
			<path d="M421.4-154.2l2.3,4.2c0.1,0.1,0.2,0.2,0.3,0.2c0.1,0,0.3-0.1,0.3-0.2l2.3-4.2h1.3l-2.7,4.7c-0.1,0.3-0.3,0.5-0.6,0.6
				c-0.2,0.1-0.5,0.2-0.8,0.2c-0.3,0-0.5-0.1-0.8-0.2c-0.2-0.1-0.4-0.3-0.6-0.6l-2.7-4.7H421.4z"/>
			<path d="M436.7-150v1.2h-5.9c-0.3,0-0.5,0-0.7-0.1c-0.2-0.1-0.4-0.2-0.6-0.4c-0.2-0.2-0.3-0.4-0.4-0.6c-0.1-0.2-0.1-0.5-0.1-0.7
				v-1.5c0-0.3,0.1-0.5,0.1-0.7c0.1-0.2,0.2-0.4,0.4-0.6c0.2-0.2,0.4-0.3,0.6-0.4c0.2-0.1,0.5-0.1,0.7-0.1l5.9,0v1.2h-5.9
				c-0.2,0-0.4,0.1-0.5,0.2c-0.1,0.1-0.2,0.3-0.2,0.5v0.2h6.3v1.2H430v0.2c0,0.2,0.1,0.4,0.2,0.5s0.3,0.2,0.5,0.2H436.7z"/>
		</g>
	</g>
</g>
<g>
	<polygon fill="none" stroke="#5DBDB8" stroke-width="4" stroke-miterlimit="10" points="-22.2,-59.6 -101.1,-14.1 -179.9,-59.6 
		-179.9,-150.7 -101.1,-196.2 -22.2,-150.7 	"/>
	<g>
		<path d="M-97.4-79.3h-3.3V-89c0-0.7,0.1-1.5,0.4-2.1c0.3-0.7,0.7-1.2,1.2-1.7c0.5-0.5,1.1-0.9,1.7-1.2c0.7-0.3,1.4-0.4,2.1-0.4
			h12.6v3.3h-12.6c-0.6,0-1.1,0.2-1.5,0.6c-0.4,0.4-0.6,0.9-0.6,1.5v2.1h14.7v3.3h-14.7V-79.3z"/>
		<path d="M-81.7-79.3v-13.3c0-0.5,0.1-0.9,0.3-1.3c0.2-0.4,0.5-0.6,0.8-0.8c0.3-0.1,0.7-0.2,1-0.1s0.7,0.3,1,0.7l8.2,11.4l8.2-11.4
			c0.3-0.4,0.6-0.6,1-0.7c0.4-0.1,0.7,0,1,0.1c0.3,0.1,0.6,0.4,0.8,0.8c0.2,0.4,0.3,0.8,0.3,1.3v13.3h-2.7v-10.4L-69-79.7
			c-0.2,0.3-0.4,0.4-0.6,0.6c-0.2,0.1-0.5,0.2-0.7,0.2c-0.3,0-0.5-0.1-0.7-0.2c-0.2-0.1-0.4-0.3-0.6-0.6L-79-89.8v10.4H-81.7z"/>
		<g>
			<g>
				<path d="M-143.1-78.9V-130h18.8c7,0,12.6,2.5,16.8,7.4c4.2,4.9,6.3,11,6.3,18.3c0,7.2-2.2,13.3-6.5,18.2s-10.6,7.3-18.7,7.3
					H-143.1z M-133.7-86.4h7.7c4.1,0,7.6-1.5,10.5-4.6c2.9-3.1,4.3-7.7,4.3-13.8c0-5-1.3-9.2-3.8-12.7c-2.5-3.5-5.8-5.2-9.9-5.2
					h-8.8V-86.4z"/>
			</g>
			<g>
				<path fill="#C7C7C7" d="M-141.4-80.3v-51.1h18.8c7,0,12.6,2.5,16.8,7.4c4.2,4.9,6.3,11,6.3,18.3c0,7.2-2.2,13.3-6.5,18.2
					c-4.3,4.9-10.6,7.3-18.7,7.3H-141.4z M-132-87.8h7.7c4.1,0,7.6-1.5,10.5-4.6c2.9-3.1,4.3-7.7,4.3-13.8c0-5-1.3-9.2-3.8-12.7
					c-2.5-3.5-5.8-5.2-9.9-5.2h-8.8V-87.8z"/>
			</g>
		</g>
	</g>
</g>
<path fill="#68AF23" d="M499.8,338c-0.1-0.3-0.3-0.6-0.4-0.9C499.5,337.3,499.7,337.6,499.8,338z"/>
<g>
	<polygon fill="none" stroke="#6EC2BF" stroke-width="4" stroke-miterlimit="10" points="676,444.9 420.9,592.2 165.9,444.9 
		165.9,150.4 420.9,3.1 676,150.4 	"/>
	<g>
		<g>
			<path fill="#3C3B3C" d="M424.4,237.2c-9.6-5.5-23.9,1.5-32,15.5c-8,14.1-6.7,29.9,2.9,35.4c9.6,5.5,24-1.5,32-15.5
				C435.4,258.6,434,242.7,424.4,237.2z M420.4,265.7c-3.1,7.2-9.3,11.5-14.1,9.5c-4.7-2-6.1-9.4-3.1-16.7c3-7.2,9.3-11.5,14-9.5
				C422,251,423.4,258.4,420.4,265.7z"/>
			<path fill="#3C3B3C" d="M266.6,244.5C266.6,244.5,266.6,244.5,266.6,244.5c0,0,21.6,4.8,21.6,7.5c0,0,0,0.1,0,0.1l0,0
				c-0.8,2.5-6.2,6.2-9,7c-0.2,0-0.4,0.1-0.5,0.1c-3.5,0.7-7.8,1-13,0.9c-30.9-0.7-42.7,36.2-16.7,33.5c26-2.7,28.3-5.1,28.3-5.1
				s0,0,0.1,0.1l-3.9,12.8c-4.8,3.1-13.8,5.8-29.9,6.7c-45.9,2.7-34.3-24.1-33.2-29c1.1-4.9,24.1-29.3,41.8-25.2
				c17.6,4-24.3-6.9-0.7-27.7c17.2-15.1,38.2-14.2,48.4-12.5l-4.6,15.2C281.6,230.1,252.2,233.9,266.6,244.5z"/>
			<path fill="#3C3B3C" d="M288.1,252.2l-1.3,4.3c-1.9,1.1-4.5,2-7.8,2.7C281.9,258.4,287.3,254.7,288.1,252.2z"/>
			<path fill="#3C3B3C" d="M350.1,247.8c-0.1,0.2-0.1,0.4-0.3,0.7v0l-18.1,47.6c0,0-15.1,1.6-30.5,2.8c-18.1,0-15.2-19-14.6-22.3
				c0.1-0.3,0.1-0.5,0.1-0.5c3.1-14.4,9.4-30,9.4-30c20.8-4,17.7,3.4,17.7,3.4c-18.3,38.6,0,42.2,5.6,36.4c4.4-4.6,10.6-28,13-37.8
				c0,0,1-4.3,9-4.3C349,243.8,351.3,243.9,350.1,247.8z"/>
			<path fill="#717170" d="M411.4,307.7c-0.1,0.2-0.1,0.3-0.2,0.5v0l-13.8,36.3c0,0-11.5,1.2-23.2,2.1c-13.8,0-11.6-14.5-11.1-17
				c0.1-0.2,0.1-0.4,0.1-0.4c2.4-10.9,7.2-22.8,7.2-22.8c15.8-3,13.4,2.6,13.4,2.6c-13.9,29.4,0,32.1,4.2,27.7
				c3.4-3.5,8.1-21.3,9.9-28.7c0,0,0.8-3.2,6.9-3.2C410.6,304.7,412.4,304.8,411.4,307.7z"/>
			<path fill="#3C3B3C" d="M386.6,252.3c0,0-23.7-7.8-28.6,40l-16.6,1.9c0.1-1.7,4-58.8,46.9-54.6
				C388.4,239.6,391.1,251.4,386.6,252.3z"/>
			<path fill="#717170" d="M304.4,312.8L291,356.1h10.4c2.5-9.4,6.8-10.9,6.8-10.9c11.7-0.3,17.7-3.1,20.7-5.8
				c1.3-1.1,2.1-2.2,2.5-3.1l0-0.1c0,0,0.2-0.4,0.4-1c0.4-0.9,1-2.3,1.4-3.2c0,0,0-0.1,0-0.1C345.2,306.5,304.4,312.8,304.4,312.8z
				 M322,329.4c-1.6,4.4-5.3,7.1-8,6.1c-2.7-1.1-3.6-5.5-1.9-9.8c1.7-4.4,5.3-7.1,8-6.1C322.9,320.6,323.7,325,322,329.4z"/>
			<path fill="#3C3B3C" d="M443.4,237.9l-14.8,47.6h11.5c2.8-10.3,7.4-12,7.4-12c12.9-0.4,19.5-3.4,22.8-6.3
				c1.4-1.2,2.3-2.4,2.8-3.4l0-0.1c0,0,0.2-0.5,0.5-1.1c0.4-1,1.1-2.6,1.5-3.5c0,0,0-0.1,0-0.1C488.3,231,443.4,237.9,443.4,237.9z
				 M462.8,256.2c-1.8,4.8-5.8,7.8-8.8,6.7c-3-1.2-3.9-6-2-10.8c1.8-4.8,5.8-7.9,8.8-6.7C463.7,246.5,464.6,251.3,462.8,256.2z"/>
			<path fill="#424090" d="M477.1,281.8c-0.4-1.3-0.4-2.3-0.4-2.3h0C476.8,280.3,477,281,477.1,281.8z"/>
			<path fill="#424090" d="M476.2,274.6c0,0,0-0.1,0-0.2C476.2,274.5,476.2,274.5,476.2,274.6L476.2,274.6z"/>
			<path fill="#3C3B3C" d="M504.7,248.4c-2.4,0.1-5,0.4-7.7,1C499.3,248.8,501.9,248.4,504.7,248.4z"/>
			<path fill="#3C3B3C" d="M510.1,237.2h-0.3c-0.3,0-0.6,0-0.8,0c-2.7,0.1-5.8,0.5-8.9,1.1c-0.2,0-0.5,0.1-0.7,0.2
				c-19.6,5.4-22.8,25.6-23.1,28.5c0,0,0,0,0,0.1c0,0.1,0,0.2,0,0.2c0,1.8,0.2,3.7,0.5,5.6c0.1,0.9,0.3,1.7,0.5,2.6
				c0.9,2.9,3.7,7.4,11.8,7.4h21.2c0,0,0.1-0.2,0.3-0.7l0,0l9.2-44.8C517.8,237.3,514.3,237.1,510.1,237.2z M491.5,273.9
				c-3.2-1.3-3.3-8.2-0.3-15.4c3-7.3,7.9-12.1,11-10.8c3.2,1.3,3.3,8.2,0.3,15.4C499.6,270.4,494.7,275.2,491.5,273.9z"/>
			<path fill="#717170" d="M359.5,338.3l-4.6,10l0,0c-0.4,0.1-0.7,0.3-1,0.4c-2.9,0.9-7.3,2.1-7.4,2.1c-24,3.5-0.8-43.3-0.8-43.3
				c4.8-2.1,13.2,0,13.2,0c-10,17.2-10.2,29.6-9.2,31.3c0.8,1.4,6.6-0.7,9-0.8C359,338.1,359.4,338.2,359.5,338.3z"/>
			<path fill="#717170" d="M429.9,318.3c0,0,3,0.9,5,3.5c0.5,0.9,1.1,2,1.6,3.1v0c2.4,6.3,1.1,15.9-25.8,18.6h-1.8v-8.2
				c0,0,10.5-0.9,15.6-3.1c-0.6-3.1-4.9-7.1-5.5-7.6c0,0-0.1-0.1-0.1-0.1c0,0-0.1,0-0.1,0s-16.9-19.9,20.5-23.8c0,0,3.5,2.6,0,7.5
				C439.3,308.3,412.7,312.7,429.9,318.3z"/>
		</g>
		<path fill="#343434" d="M242.4,417.4c0,0,205-48.6,249.6-78.9C492,338.6,433.6,403.6,242.4,417.4z"/>
		<path fill="#939393" stroke="#6B6B6B" stroke-width="2" stroke-miterlimit="10" d="M341.5,428.4c0,0,144.3-48.7,171.6-97.9
			l1.6-2.8l-30-20.9l51.2-7.1l32.3-64.3l5.4,56.5l60.2-7L581,328.9l4,49.8l-38.1-29.9C546.9,348.7,442.5,414.5,341.5,428.4z"/>
	</g>
</g>
<g>
	<polygon fill="none" stroke="#6EC2C0" stroke-width="4" stroke-miterlimit="10" points="241.6,-111.5 162.7,-66 83.9,-111.5 
		83.9,-202.5 162.7,-248.1 241.6,-202.5 	"/>
	<g>
		<g>
			<path fill="#7BCCE8" d="M200.6-150l2.4-35.5l-20.1,5.6l-0.5,7.6l5.9-1.8c0,0-1.1,14.5-1.3,19.4c-0.2,5-2.7,6.5-4.8,6.4
				c-2.1-0.1-9.4-5.5-9.4-5.5l0.1-1.2c9.9-2.7,9.4-10.8,9.4-10.8c1.1-11.4-12.2-10.7-12.2-10.7l-23.2,6l-0.5,8l2.6-0.2l-0.6,8.3
				l-12.4-13.3l-16.1,4.6l-0.5,8l4.4-1.6l-1.5,21.6l-4.4,1.3l-0.5,7.6l18.7-5.3l1-16.2l7.7,10.5l1.9,2.7l7.8-2.2
				c0,0,3.8-7.5,10.8-3.1l0,0c6,5.4,17.7,5.6,17.7,5.6C200.6-136,200.6-150,200.6-150z M162.3-166.6c0,0,8.2-3,7.8,2.1
				c-0.4,5.1-8.4,5.2-8.4,5.2L162.3-166.6z"/>
			
				<ellipse transform="matrix(0.9977 6.755280e-002 -6.755280e-002 0.9977 -12.6646 -13.5489)" fill="#7BCCE8" cx="194" cy="-194" rx="8.3" ry="8.6"/>
		</g>
		<g>
			<path fill="#515050" d="M202-150.6l2.4-35.5l-20.1,5.6l-0.5,7.6l5.9-1.8c0,0-1.1,14.5-1.3,19.4c-0.2,5-2.7,6.5-4.8,6.4
				c-2.1-0.1-9.4-5.5-9.4-5.5l0.1-1.2c9.9-2.7,9.4-10.8,9.4-10.8c1.1-11.4-12.2-10.7-12.2-10.7l-23.2,6l-0.5,8l2.6-0.2l-0.6,8.3
				l-12.4-13.3l-16.1,4.6l-0.5,8l4.4-1.6l-1.5,21.6l-4.4,1.3l-0.5,7.6l18.7-5.3l1-16.2l7.7,10.5l1.9,2.7l7.8-2.2
				c0,0,3.8-7.5,10.8-3.1l0,0c6,5.4,17.7,5.6,17.7,5.6C202-136.6,202-150.6,202-150.6z M163.6-167.3c0,0,8.2-3,7.8,2.1
				c-0.4,5.1-8.4,5.2-8.4,5.2L163.6-167.3z"/>
			
				<ellipse transform="matrix(0.9977 6.755280e-002 -6.755280e-002 0.9977 -12.7061 -13.6447)" fill="#515050" cx="195.4" cy="-194.7" rx="8.3" ry="8.6"/>
		</g>
	</g>
</g>
<line fill="none" stroke="#6B6B6B" stroke-width="0.5" stroke-miterlimit="10" x1="-541.4" y1="-541.8" x2="-541.4" y2="-425.4"/>
<g>
	<polygon fill="none" stroke="#6EC2BF" stroke-width="4" stroke-miterlimit="10" points="-462.5,-587.4 -541.4,-541.8 
		-620.2,-587.4 -620.2,-678.4 -541.4,-723.9 -462.5,-678.4 	"/>
	<g>
		<g>
			<path d="M-592-623.7h7.9c0.5,0,0.9-0.2,1.2-0.5c0.3-0.3,0.5-0.7,0.5-1.2c0-0.5-0.2-0.9-0.5-1.2c-0.3-0.3-0.7-0.5-1.2-0.5h-10.8
				v9.3h-2.6v-11.9l13.4,0c0.6,0,1.1,0.1,1.7,0.3c0.5,0.2,1,0.5,1.4,0.9c0.4,0.4,0.7,0.8,0.9,1.4c0.2,0.5,0.3,1.1,0.3,1.7
				c0,0.6-0.1,1.2-0.3,1.7c-0.2,0.5-0.5,1-0.9,1.4c-0.4,0.4-0.8,0.7-1.4,0.9c-0.5,0.2-1.1,0.3-1.7,0.3h-1.5l5.7,3.3h-5.1l-7.4-4.4
				c-0.2-0.1-0.3-0.2-0.4-0.4c-0.1-0.2-0.1-0.4,0-0.5c0-0.2,0.1-0.3,0.3-0.4C-592.4-623.6-592.2-623.7-592-623.7z"/>
			<path d="M-561.7-620.3v2.6H-575c-0.6,0-1.1-0.1-1.7-0.3c-0.5-0.2-1-0.5-1.4-0.9c-0.4-0.4-0.7-0.8-0.9-1.4
				c-0.2-0.5-0.3-1.1-0.3-1.7v-3.3c0-0.6,0.1-1.1,0.3-1.7c0.2-0.5,0.5-1,0.9-1.4c0.4-0.4,0.8-0.7,1.4-0.9c0.5-0.2,1.1-0.3,1.7-0.3
				l13.4,0v2.6H-575c-0.5,0-0.9,0.2-1.2,0.5c-0.3,0.3-0.5,0.7-0.5,1.2v0.3h14.2v2.6h-14.2v0.4c0,0.5,0.2,0.9,0.5,1.2
				c0.3,0.3,0.7,0.5,1.2,0.5H-561.7z"/>
			<path d="M-543.2-620.3v2.6h-13.4c-0.6,0-1.1-0.1-1.7-0.3c-0.5-0.2-1-0.5-1.4-0.9c-0.4-0.4-0.7-0.8-0.9-1.4
				c-0.2-0.5-0.3-1.1-0.3-1.7v-3.3c0-0.6,0.1-1.1,0.3-1.7c0.2-0.5,0.5-1,0.9-1.4c0.4-0.4,0.8-0.7,1.4-0.9c0.5-0.2,1.1-0.3,1.7-0.3
				l13.4,0v2.6h-13.4c-0.5,0-0.9,0.2-1.2,0.5c-0.3,0.3-0.5,0.7-0.5,1.2v3.3c0,0.5,0.2,0.9,0.5,1.2c0.3,0.3,0.7,0.5,1.2,0.5H-543.2z"
				/>
			<path d="M-536.4-617.7c-0.8,0-1.6-0.2-2.3-0.5c-0.7-0.3-1.3-0.7-1.9-1.3c-0.5-0.5-1-1.2-1.3-1.9c-0.3-0.7-0.5-1.5-0.5-2.3
				c0-0.8,0.2-1.6,0.5-2.3c0.3-0.7,0.7-1.4,1.3-1.9c0.5-0.5,1.2-1,1.9-1.3c0.7-0.3,1.5-0.5,2.3-0.5h8.9c0.8,0,1.6,0.2,2.3,0.5
				c0.7,0.3,1.4,0.7,1.9,1.3c0.5,0.5,1,1.2,1.3,1.9c0.3,0.7,0.5,1.5,0.5,2.3c0,0.8-0.2,1.6-0.5,2.3c-0.3,0.7-0.7,1.3-1.3,1.9
				c-0.5,0.5-1.2,1-1.9,1.3c-0.7,0.3-1.5,0.5-2.3,0.5H-536.4z M-527.5-620.3c0.5,0,0.9-0.1,1.3-0.3s0.8-0.4,1.1-0.7
				c0.3-0.3,0.5-0.7,0.7-1.1s0.3-0.8,0.3-1.3c0-0.5-0.1-0.9-0.3-1.3c-0.2-0.4-0.4-0.8-0.7-1.1c-0.3-0.3-0.7-0.5-1.1-0.7
				s-0.8-0.3-1.3-0.3h-8.9c-0.5,0-0.9,0.1-1.3,0.3s-0.8,0.4-1.1,0.7c-0.3,0.3-0.5,0.7-0.7,1.1c-0.2,0.4-0.3,0.8-0.3,1.3
				c0,0.5,0.1,0.9,0.3,1.3c0.2,0.4,0.4,0.8,0.7,1.1c0.3,0.3,0.7,0.5,1.1,0.7s0.8,0.3,1.3,0.3H-527.5z"/>
			<path d="M-515.6-623.7h7.9c0.5,0,0.9-0.2,1.2-0.5c0.3-0.3,0.5-0.7,0.5-1.2c0-0.5-0.2-0.9-0.5-1.2c-0.3-0.3-0.7-0.5-1.2-0.5h-10.8
				v9.3h-2.6v-11.9l13.4,0c0.6,0,1.2,0.1,1.7,0.3c0.5,0.2,1,0.5,1.4,0.9c0.4,0.4,0.7,0.8,0.9,1.4c0.2,0.5,0.3,1.1,0.3,1.7
				c0,0.6-0.1,1.2-0.3,1.7c-0.2,0.5-0.5,1-0.9,1.4c-0.4,0.4-0.8,0.7-1.4,0.9c-0.5,0.2-1.1,0.3-1.7,0.3h-1.5l5.7,3.3h-5.1l-7.4-4.4
				c-0.2-0.1-0.3-0.2-0.4-0.4c-0.1-0.2-0.1-0.4,0-0.5c0-0.2,0.1-0.3,0.3-0.4C-516-623.6-515.8-623.7-515.6-623.7z"/>
			<path d="M-485.3-622c0,0.6-0.1,1.1-0.3,1.7c-0.2,0.5-0.5,1-0.9,1.4c-0.4,0.4-0.8,0.7-1.4,0.9c-0.5,0.2-1.1,0.3-1.7,0.3h-13.4
				v-11.9l13.4,0c0.6,0,1.1,0.1,1.7,0.3c0.5,0.2,1,0.5,1.4,0.9c0.4,0.4,0.7,0.8,0.9,1.4c0.2,0.5,0.3,1.1,0.3,1.7V-622z
				 M-489.5-620.3c0.5,0,0.9-0.2,1.2-0.5c0.3-0.3,0.5-0.7,0.5-1.2v-3.3c0-0.5-0.2-0.9-0.5-1.2c-0.3-0.3-0.7-0.5-1.2-0.5h-10.8v6.7
				H-489.5z"/>
		</g>
		<path fill="#010101" d="M-511.8-660.9c-4.3,0.6-22.7,7.6-25.3,8.5c-0.7-1.3-2.4-2.2-4.3-2.2c-1.9,0-3.6,0.9-4.3,2.2
			c-2.2-0.8-21-7.9-25.3-8.6c-4.6-0.7,27,11.1,27,21.8h5.1C-538.8-649.8-507.3-661.5-511.8-660.9z M-541.4-645.5
			c-1.2,0-2.2-0.9-2.7-2.2c-0.2-0.5-0.3-1.1-0.3-1.8c0-1.9,1-3.4,2.2-3.9c0.2-0.1,0.4-0.1,0.7-0.1h0.1c0,0,0,0,0.1,0
			c0.2,0,0.4,0,0.5,0.1c1.3,0.4,2.3,2,2.3,3.9c0,0.7-0.1,1.3-0.3,1.8C-539.3-646.4-540.2-645.5-541.4-645.5z"/>
		<g>
			<path d="M-589.6-611.9c0,0.3,0,0.5-0.1,0.7c-0.1,0.2-0.2,0.4-0.4,0.6c-0.2,0.2-0.4,0.3-0.6,0.4c-0.2,0.1-0.5,0.1-0.7,0.1h-5.9
				v-5.3l5.9,0c0.3,0,0.5,0,0.7,0.1c0.2,0.1,0.4,0.2,0.6,0.4c0.2,0.2,0.3,0.4,0.4,0.6c0.1,0.2,0.1,0.5,0.1,0.7V-611.9z
				 M-591.5-611.1c0.2,0,0.4-0.1,0.5-0.2c0.1-0.1,0.2-0.3,0.2-0.5v-1.5c0-0.2-0.1-0.4-0.2-0.5c-0.1-0.1-0.3-0.2-0.5-0.2h-4.8v3
				H-591.5z"/>
			<path d="M-586.4-615.3h3.7c0.3,0,0.5,0.1,0.7,0.1c0.2,0.1,0.4,0.2,0.6,0.4c0.2,0.2,0.3,0.4,0.4,0.6c0.1,0.2,0.1,0.5,0.1,0.7v3.4
				h-1.2v-1.3h-5.2v1.3h-1.2v-3.4c0-0.3,0-0.5,0.1-0.7c0.1-0.2,0.2-0.4,0.4-0.6c0.2-0.2,0.4-0.3,0.6-0.4
				C-586.9-615.2-586.7-615.3-586.4-615.3z M-587.2-612.4h5.2v-1c0-0.2-0.1-0.4-0.2-0.5c-0.1-0.1-0.3-0.2-0.5-0.2h-3.7
				c-0.2,0-0.4,0.1-0.5,0.2c-0.1,0.1-0.2,0.3-0.2,0.5V-612.4z"/>
			<path d="M-572.3-615.2v4.6c0,0.2,0,0.3-0.1,0.4c-0.1,0.1-0.2,0.2-0.3,0.3c-0.1,0.1-0.3,0.1-0.4,0.1c-0.1,0-0.3-0.1-0.4-0.2
				l-4.7-3.8v3.9h-1.1v-4.6c0-0.2,0-0.3,0.1-0.4c0.1-0.1,0.2-0.2,0.3-0.3c0.1-0.1,0.3-0.1,0.4-0.1c0.1,0,0.3,0.1,0.4,0.2l4.7,3.8
				v-3.8H-572.3z"/>
			<path d="M-563.1-611.1v1.2h-5.9c-0.3,0-0.5,0-0.7-0.1c-0.2-0.1-0.4-0.2-0.6-0.4c-0.2-0.2-0.3-0.4-0.4-0.6
				c-0.1-0.2-0.1-0.5-0.1-0.7v-1.5c0-0.3,0-0.5,0.1-0.7c0.1-0.2,0.2-0.4,0.4-0.6c0.2-0.2,0.4-0.3,0.6-0.4c0.2-0.1,0.5-0.1,0.7-0.1
				l5.9,0v1.2h-5.9c-0.2,0-0.4,0.1-0.5,0.2c-0.1,0.1-0.2,0.3-0.2,0.5v1.5c0,0.2,0.1,0.4,0.2,0.5c0.1,0.1,0.3,0.2,0.5,0.2H-563.1z"/>
			<path d="M-554-611.1v1.2h-5.9c-0.3,0-0.5,0-0.7-0.1c-0.2-0.1-0.4-0.2-0.6-0.4c-0.2-0.2-0.3-0.4-0.4-0.6c-0.1-0.2-0.1-0.5-0.1-0.7
				v-1.5c0-0.3,0-0.5,0.1-0.7c0.1-0.2,0.2-0.4,0.4-0.6c0.2-0.2,0.4-0.3,0.6-0.4c0.2-0.1,0.5-0.1,0.7-0.1l5.9,0v1.2h-5.9
				c-0.2,0-0.4,0.1-0.5,0.2c-0.1,0.1-0.2,0.3-0.2,0.5v0.2h6.3v1.2h-6.3v0.2c0,0.2,0.1,0.4,0.2,0.5c0.1,0.1,0.3,0.2,0.5,0.2H-554z"/>
			<path d="M-545.9-615.2l2.3,4.2c0.1,0.1,0.2,0.2,0.3,0.2s0.3-0.1,0.3-0.2l1-1.8l-1.3-2.4h1.3l0.7,1.2l0.7-1.2h1.3l-1.3,2.4l1,1.8
				c0,0.1,0.1,0.1,0.1,0.1c0.1,0,0.1,0,0.2,0s0.1,0,0.2,0c0.1,0,0.1-0.1,0.1-0.1l2.3-4.2h1.3l-2.7,4.7c-0.1,0.3-0.3,0.5-0.6,0.6
				c-0.2,0.1-0.5,0.2-0.7,0.2c-0.3,0-0.5-0.1-0.8-0.2c-0.2-0.1-0.4-0.3-0.6-0.6l-0.7-1.2l-0.7,1.2c-0.1,0.3-0.3,0.5-0.6,0.6
				c-0.2,0.1-0.5,0.2-0.8,0.2c-0.3,0-0.5-0.1-0.8-0.2c-0.2-0.1-0.4-0.3-0.6-0.6l-2.7-4.7H-545.9z"/>
			<path d="M-526.3-611.1v1.2h-5.9c-0.3,0-0.5,0-0.7-0.1c-0.2-0.1-0.4-0.2-0.6-0.4c-0.2-0.2-0.3-0.4-0.4-0.6
				c-0.1-0.2-0.1-0.5-0.1-0.7v-1.5c0-0.3,0-0.5,0.1-0.7c0.1-0.2,0.2-0.4,0.4-0.6c0.2-0.2,0.4-0.3,0.6-0.4c0.2-0.1,0.5-0.1,0.7-0.1
				l5.9,0v1.2h-5.9c-0.2,0-0.4,0.1-0.5,0.2c-0.1,0.1-0.2,0.3-0.2,0.5v0.2h6.3v1.2h-6.3v0.2c0,0.2,0.1,0.4,0.2,0.5s0.3,0.2,0.5,0.2
				H-526.3z"/>
			<path d="M-513.2-611.1v1.2h-4.4c-0.3,0-0.5,0-0.7-0.1c-0.2-0.1-0.4-0.2-0.6-0.4c-0.2-0.2-0.3-0.4-0.4-0.6
				c-0.1-0.2-0.1-0.5-0.1-0.7v-3.4h1.2v3.4c0,0.2,0.1,0.4,0.2,0.5c0.1,0.1,0.3,0.2,0.5,0.2H-513.2z"/>
			<path d="M-509.6-610c-0.4,0-0.7-0.1-1-0.2s-0.6-0.3-0.8-0.6c-0.2-0.2-0.4-0.5-0.6-0.8c-0.1-0.3-0.2-0.7-0.2-1s0.1-0.7,0.2-1
				c0.1-0.3,0.3-0.6,0.6-0.8c0.2-0.2,0.5-0.4,0.8-0.6c0.3-0.1,0.7-0.2,1-0.2h3.9c0.4,0,0.7,0.1,1,0.2c0.3,0.1,0.6,0.3,0.8,0.6
				c0.2,0.2,0.4,0.5,0.6,0.8c0.1,0.3,0.2,0.7,0.2,1s-0.1,0.7-0.2,1c-0.1,0.3-0.3,0.6-0.6,0.8c-0.2,0.2-0.5,0.4-0.8,0.6
				c-0.3,0.1-0.7,0.2-1,0.2H-509.6z M-505.6-611.1c0.2,0,0.4,0,0.6-0.1c0.2-0.1,0.3-0.2,0.5-0.3c0.1-0.1,0.2-0.3,0.3-0.5
				c0.1-0.2,0.1-0.4,0.1-0.6s0-0.4-0.1-0.6c-0.1-0.2-0.2-0.3-0.3-0.5s-0.3-0.2-0.5-0.3c-0.2-0.1-0.4-0.1-0.6-0.1h-3.9
				c-0.2,0-0.4,0-0.6,0.1c-0.2,0.1-0.3,0.2-0.5,0.3c-0.1,0.1-0.2,0.3-0.3,0.5c-0.1,0.2-0.1,0.4-0.1,0.6s0,0.4,0.1,0.6
				c0.1,0.2,0.2,0.3,0.3,0.5c0.1,0.1,0.3,0.2,0.5,0.3c0.2,0.1,0.4,0.1,0.6,0.1H-505.6z"/>
			<path d="M-500.6-615.2l2.3,4.2c0.1,0.1,0.2,0.2,0.3,0.2c0.1,0,0.3-0.1,0.3-0.2l2.3-4.2h1.3l-2.7,4.7c-0.1,0.3-0.3,0.5-0.6,0.6
				c-0.2,0.1-0.5,0.2-0.8,0.2c-0.3,0-0.5-0.1-0.8-0.2c-0.2-0.1-0.4-0.3-0.6-0.6l-2.7-4.7H-500.6z"/>
			<path d="M-485.3-611.1v1.2h-5.9c-0.3,0-0.5,0-0.7-0.1c-0.2-0.1-0.4-0.2-0.6-0.4c-0.2-0.2-0.3-0.4-0.4-0.6
				c-0.1-0.2-0.1-0.5-0.1-0.7v-1.5c0-0.3,0.1-0.5,0.1-0.7c0.1-0.2,0.2-0.4,0.4-0.6c0.2-0.2,0.4-0.3,0.6-0.4c0.2-0.1,0.5-0.1,0.7-0.1
				l5.9,0v1.2h-5.9c-0.2,0-0.4,0.1-0.5,0.2c-0.1,0.1-0.2,0.3-0.2,0.5v0.2h6.3v1.2h-6.3v0.2c0,0.2,0.1,0.4,0.2,0.5s0.3,0.2,0.5,0.2
				H-485.3z"/>
		</g>
	</g>
</g>
<g>
	<polygon fill="none" stroke="#5DBDB8" stroke-width="4" stroke-miterlimit="10" points="-551.7,-438.9 -630.5,-393.4 
		-709.4,-438.9 -709.4,-530 -630.5,-575.5 -551.7,-530 	"/>
	<g>
		<path d="M-626.9-458.6h-3.3v-9.6c0-0.7,0.1-1.5,0.4-2.1s0.7-1.2,1.2-1.7c0.5-0.5,1.1-0.9,1.7-1.2c0.7-0.3,1.4-0.4,2.1-0.4h12.6
			v3.3h-12.6c-0.6,0-1.1,0.2-1.5,0.6c-0.4,0.4-0.6,0.9-0.6,1.5v2.1h14.7v3.3h-14.7V-458.6z"/>
		<path d="M-611.2-458.6v-13.3c0-0.5,0.1-0.9,0.3-1.3c0.2-0.4,0.5-0.6,0.8-0.8c0.3-0.1,0.7-0.2,1-0.1c0.4,0.1,0.7,0.3,1,0.7
			l8.2,11.4l8.2-11.4c0.3-0.4,0.6-0.6,1-0.7c0.4-0.1,0.7,0,1,0.1c0.3,0.1,0.6,0.4,0.8,0.8c0.2,0.4,0.3,0.8,0.3,1.3v13.3h-2.7V-469
			l-7.3,10.1c-0.2,0.3-0.4,0.4-0.6,0.6c-0.2,0.1-0.5,0.2-0.7,0.2c-0.3,0-0.5-0.1-0.7-0.2c-0.2-0.1-0.4-0.3-0.6-0.6l-7.3-10.1v10.4
			H-611.2z"/>
		<g>
			<g>
				<path d="M-672.6-458.2v-51.1h18.8c7,0,12.6,2.5,16.8,7.4c4.2,4.9,6.3,11,6.3,18.3c0,7.2-2.2,13.3-6.5,18.2s-10.6,7.3-18.7,7.3
					H-672.6z M-663.1-465.7h7.7c4.1,0,7.6-1.5,10.5-4.6c2.9-3.1,4.3-7.7,4.3-13.8c0-5-1.3-9.2-3.8-12.7c-2.5-3.5-5.8-5.2-9.9-5.2
					h-8.8V-465.7z"/>
			</g>
			<g>
				<path fill="#C7C7C7" d="M-670.9-459.6v-51.1h18.8c7,0,12.6,2.5,16.8,7.4c4.2,4.9,6.3,11,6.3,18.3s-2.2,13.3-6.5,18.2
					s-10.6,7.3-18.7,7.3H-670.9z M-661.4-467.1h7.7c4.1,0,7.6-1.5,10.5-4.6c2.9-3.1,4.3-7.7,4.3-13.8c0-5-1.3-9.2-3.8-12.7
					c-2.5-3.5-5.8-5.2-9.9-5.2h-8.8V-467.1z"/>
			</g>
		</g>
	</g>
</g>
<path fill="#68AF23" d="M-462.4-443.6c-0.1-0.3-0.3-0.6-0.4-0.9C-462.7-444.2-462.5-443.9-462.4-443.6z"/>
<g>
	<polygon fill="none" stroke="#6EC2BF" stroke-width="4" stroke-miterlimit="10" points="-373.1,-439.5 -452,-394 -530.8,-439.5 
		-530.8,-530.6 -452,-576.1 -373.1,-530.6 	"/>
	<g>
		<g>
			<path fill="#3C3B3C" d="M-450.9-503.7c-3-1.7-7.4,0.5-9.9,4.8c-2.5,4.3-2.1,9.3,0.9,10.9c3,1.7,7.4-0.5,9.9-4.8
				C-447.5-497.1-447.9-502-450.9-503.7z M-452.2-494.9c-0.9,2.2-2.9,3.6-4.3,2.9c-1.5-0.6-1.9-2.9-1-5.2c0.9-2.2,2.9-3.6,4.3-2.9
				C-451.7-499.5-451.2-497.2-452.2-494.9z"/>
			<path fill="#3C3B3C" d="M-499.7-501.5C-499.7-501.5-499.7-501.5-499.7-501.5c0,0,6.7,1.5,6.7,2.3c0,0,0,0,0,0l0,0
				c-0.2,0.8-1.9,1.9-2.8,2.2c-0.1,0-0.1,0-0.2,0c-1.1,0.2-2.4,0.3-4,0.3c-9.5-0.2-13.2,11.2-5.2,10.4c8-0.8,8.7-1.6,8.7-1.6
				s0,0,0,0l-1.2,4c-1.5,1-4.3,1.8-9.2,2.1c-14.2,0.8-10.6-7.5-10.3-9c0.4-1.5,7.5-9.1,12.9-7.8c5.4,1.2-7.5-2.1-0.2-8.6
				c5.3-4.7,11.8-4.4,15-3.9l-1.4,4.7C-495.1-505.9-504.2-504.8-499.7-501.5z"/>
			<path fill="#3C3B3C" d="M-493-499.1l-0.4,1.3c-0.6,0.3-1.4,0.6-2.4,0.8C-495-497.2-493.3-498.3-493-499.1z"/>
			<path fill="#3C3B3C" d="M-473.9-500.5c0,0.1,0,0.1-0.1,0.2v0l-5.6,14.7c0,0-4.7,0.5-9.4,0.9c-5.6,0-4.7-5.9-4.5-6.9
				c0-0.1,0-0.2,0-0.2c1-4.4,2.9-9.3,2.9-9.3c6.4-1.2,5.5,1,5.5,1c-5.7,11.9,0,13.1,1.7,11.3c1.4-1.4,3.3-8.7,4-11.7
				c0,0,0.3-1.3,2.8-1.3C-474.2-501.7-473.5-501.7-473.9-500.5z"/>
			<path fill="#717170" d="M-454.9-481.9c0,0.1,0,0.1-0.1,0.2v0l-4.3,11.2c0,0-3.6,0.4-7.2,0.6c-4.3,0-3.6-4.5-3.4-5.3
				c0-0.1,0-0.1,0-0.1c0.7-3.4,2.2-7.1,2.2-7.1c4.9-0.9,4.2,0.8,4.2,0.8c-4.3,9.1,0,9.9,1.3,8.6c1-1.1,2.5-6.6,3.1-8.9
				c0,0,0.2-1,2.1-1C-455.2-482.9-454.6-482.9-454.9-481.9z"/>
			<path fill="#3C3B3C" d="M-462.6-499.1c0,0-7.3-2.4-8.8,12.4l-5.1,0.6c0-0.5,1.2-18.2,14.5-16.9
				C-462.1-503-461.2-499.3-462.6-499.1z"/>
			<path fill="#717170" d="M-488-480.4l-4.1,13.4h3.2c0.8-2.9,2.1-3.4,2.1-3.4c3.6-0.1,5.5-1,6.4-1.8c0.4-0.3,0.6-0.7,0.8-1l0,0
				c0,0,0.1-0.1,0.1-0.3c0.1-0.3,0.3-0.7,0.4-1c0,0,0,0,0,0C-475.4-482.3-488-480.4-488-480.4z M-482.6-475.2
				c-0.5,1.4-1.6,2.2-2.5,1.9c-0.8-0.3-1.1-1.7-0.6-3c0.5-1.4,1.6-2.2,2.5-1.9C-482.3-478-482.1-476.6-482.6-475.2z"/>
			<path fill="#3C3B3C" d="M-445-503.5l-4.6,14.7h3.6c0.9-3.2,2.3-3.7,2.3-3.7c4-0.1,6-1.1,7-2c0.4-0.4,0.7-0.8,0.9-1.1l0,0
				c0,0,0.1-0.1,0.1-0.4c0.1-0.3,0.3-0.8,0.5-1.1c0,0,0,0,0,0C-431.2-505.7-445-503.5-445-503.5z M-439.1-497.9
				c-0.6,1.5-1.8,2.4-2.7,2.1c-0.9-0.4-1.2-1.9-0.6-3.3c0.6-1.5,1.8-2.4,2.7-2.1C-438.8-500.9-438.5-499.4-439.1-497.9z"/>
			<path fill="#424090" d="M-434.6-490c-0.1-0.4-0.1-0.7-0.1-0.7h0C-434.7-490.4-434.7-490.2-434.6-490z"/>
			<path fill="#424090" d="M-434.9-492.2C-434.9-492.2-434.9-492.2-434.9-492.2C-434.9-492.2-434.9-492.2-434.9-492.2L-434.9-492.2z
				"/>
			<path fill="#3C3B3C" d="M-426.1-500.3c-0.7,0-1.6,0.1-2.4,0.3C-427.8-500.2-427-500.3-426.1-500.3z"/>
			<path fill="#3C3B3C" d="M-424.4-503.7L-424.4-503.7c-0.2,0-0.3,0-0.3,0c-0.8,0-1.8,0.1-2.7,0.3c-0.1,0-0.2,0-0.2,0.1
				c-6.1,1.7-7,7.9-7.2,8.8c0,0,0,0,0,0c0,0,0,0.1,0,0.1c0,0.5,0.1,1.1,0.2,1.7c0,0.3,0.1,0.5,0.1,0.8c0.3,0.9,1.1,2.3,3.6,2.3h6.6
				c0,0,0-0.1,0.1-0.2l0,0l2.8-13.8C-422.1-503.7-423.1-503.8-424.4-503.7z M-430.2-492.4c-1-0.4-1-2.5-0.1-4.8
				c0.9-2.2,2.4-3.7,3.4-3.3c1,0.4,1,2.5,0.1,4.8C-427.7-493.5-429.2-492-430.2-492.4z"/>
			<path fill="#717170" d="M-471-472.5l-1.4,3.1l0,0c-0.1,0-0.2,0.1-0.3,0.1c-0.9,0.3-2.2,0.6-2.3,0.7c-7.4,1.1-0.2-13.4-0.2-13.4
				c1.5-0.7,4.1,0,4.1,0c-3.1,5.3-3.1,9.2-2.9,9.7c0.2,0.4,2-0.2,2.8-0.2C-471.1-472.6-471-472.5-471-472.5z"/>
			<path fill="#717170" d="M-449.2-478.7c0,0,0.9,0.3,1.5,1.1c0.2,0.3,0.3,0.6,0.5,1v0c0.7,2,0.4,4.9-8,5.8h-0.5v-2.5
				c0,0,3.3-0.3,4.8-1c-0.2-1-1.5-2.2-1.7-2.4c0,0,0,0,0,0c0,0,0,0,0,0s-5.2-6.2,6.3-7.4c0,0,1.1,0.8,0,2.3
				C-446.3-481.8-454.5-480.4-449.2-478.7z"/>
		</g>
		<path fill="#343434" d="M-507.2-448c0,0,63.4-15,77.2-24.4C-430-472.4-448.1-452.3-507.2-448z"/>
		<path fill="#939393" stroke="#6B6B6B" stroke-width="2" stroke-miterlimit="10" d="M-476.6-444.6c0,0,44.6-15.1,53-30.2l0.5-0.9
			l-9.3-6.5l15.8-2.2l10-19.9l1.7,17.4l18.6-2.2l-16.3,13.6l1.2,15.4l-11.8-9.3C-413.1-469.3-445.3-448.9-476.6-444.6z"/>
	</g>
</g>
<g>
	<polygon fill="none" stroke="#6EC2C0" stroke-width="4" stroke-miterlimit="10" points="-462.5,-289.4 -541.4,-243.8 
		-620.2,-289.4 -620.2,-380.4 -541.4,-425.9 -462.5,-380.4 	"/>
	<g>
		<g>
			<path fill="#7BCCE8" d="M-503.5-327.8l2.4-35.5l-20.1,5.6l-0.5,7.6l5.9-1.8c0,0-1.1,14.5-1.3,19.4c-0.2,5-2.7,6.5-4.8,6.4
				c-2.1-0.1-9.4-5.5-9.4-5.5l0.1-1.2c9.9-2.7,9.4-10.8,9.4-10.8c1.1-11.4-12.2-10.7-12.2-10.7l-23.2,6l-0.5,8l2.6-0.2l-0.6,8.3
				l-12.4-13.3l-16.1,4.6l-0.5,8l4.4-1.6l-1.5,21.6l-4.4,1.3l-0.5,7.6l18.7-5.3l1-16.2l7.7,10.5l1.9,2.7l7.8-2.2
				c0,0,3.8-7.5,10.8-3.1l0,0c6,5.4,17.7,5.6,17.7,5.6C-503.5-313.8-503.5-327.8-503.5-327.8z M-541.9-344.5c0,0,8.2-3,7.8,2.1
				c-0.4,5.1-8.4,5.2-8.4,5.2L-541.9-344.5z"/>
			
				<ellipse transform="matrix(0.9977 6.755280e-002 -6.755280e-002 0.9977 -26.2875 33.6099)" fill="#7BCCE8" cx="-510.1" cy="-371.9" rx="8.3" ry="8.6"/>
		</g>
		<g>
			<path fill="#515050" d="M-502.1-328.5l2.4-35.5l-20.1,5.6l-0.5,7.6l5.9-1.8c0,0-1.1,14.5-1.3,19.4c-0.2,5-2.7,6.5-4.8,6.4
				c-2.1-0.1-9.4-5.5-9.4-5.5l0.1-1.2c9.9-2.7,9.4-10.8,9.4-10.8c1.1-11.4-12.2-10.7-12.2-10.7l-23.2,6l-0.5,8l2.6-0.2l-0.6,8.3
				l-12.4-13.3l-16.1,4.6l-0.5,8l4.4-1.6l-1.5,21.6l-4.4,1.3l-0.5,7.6l18.7-5.3l1-16.2l7.7,10.5l1.9,2.7l7.8-2.2
				c0,0,3.8-7.5,10.8-3.1l0,0c6,5.4,17.7,5.6,17.7,5.6C-502.2-314.5-502.1-328.5-502.1-328.5z M-540.5-345.1c0,0,8.2-3,7.8,2.1
				c-0.4,5.1-8.4,5.2-8.4,5.2L-540.5-345.1z"/>
			
				<ellipse transform="matrix(0.9977 6.755280e-002 -6.755280e-002 0.9977 -26.329 33.514)" fill="#515050" cx="-508.7" cy="-372.6" rx="8.3" ry="8.6"/>
		</g>
	</g>
</g>
</svg>
