<?xml version="1.0" encoding="utf-8"?>
<!-- Generator: Adobe Illustrator 17.1.0, SVG Export Plug-In . SVG Version: 6.00 Build 0)  -->
<!DOCTYPE svg PUBLIC "-//W3C//DTD SVG 1.1//EN" "http://www.w3.org/Graphics/SVG/1.1/DTD/svg11.dtd">
<svg version="1.1" id="Слой_1" xmlns="http://www.w3.org/2000/svg" xmlns:xlink="http://www.w3.org/1999/xlink" x="0px" y="0px"
	 viewBox="0 0 841.9 595.3" enable-background="new 0 0 841.9 595.3" xml:space="preserve">
<path fill="#002B32" d="M248.3-185.3L248.3-185.3L248.3-185.3L248.3-185.3z"/>
<path fill="#002B32" d="M248.6-185.3L248.6-185.3L248.6-185.3C248.5-185.3,248.5-185.3,248.6-185.3z"/>
<path fill="#002B32" d="M247.7-185.3h0.6c-0.1,0-0.3,0.1-0.6,0.2V-185.3z"/>
<path fill="#002B32" d="M248.3-185.3L248.3-185.3L248.3-185.3L248.3-185.3z"/>
<path fill="#002B32" d="M248.5-185.3L248.5-185.3L248.5-185.3L248.5-185.3z"/>
<path fill="#002B32" d="M249-185.3v0.1c-0.2-0.1-0.4-0.1-0.5-0.1H249z"/>
<path fill="#002B32" d="M248.3-185.3L248.3-185.3L248.3-185.3L248.3-185.3z"/>
<path fill="#002B32" d="M248.6-185.3L248.6-185.3L248.6-185.3C248.5-185.3,248.5-185.3,248.6-185.3z"/>
<g>
	<polygon fill="none" stroke="#6EC2BF" stroke-width="4" stroke-miterlimit="10" points="676.5,445.2 420.8,592.7 165.4,445.2 
		165.4,150 420.8,2.6 676.5,150 	"/>
	<g>
		<g>
			<path d="M256.8,327.6h25.6c1.6,0,2.9-0.6,3.9-1.6c1-1,1.6-2.3,1.6-3.9s-0.6-2.9-1.6-3.9c-1-1-2.3-1.6-3.9-1.6h-35v30.1H239v-38.6
				h43.4c1.9,0,3.6,0.3,5.5,1c1.6,0.6,3.2,1.6,4.5,2.9s2.3,2.6,2.9,4.5c0.6,1.6,1,3.6,1,5.5c0,1.9-0.3,3.9-1,5.5
				c-0.6,1.6-1.6,3.2-2.9,4.5s-2.6,2.3-4.5,2.9c-1.6,0.6-3.6,1-5.5,1h-4.9l18.5,10.7h-16.5l-24-14.3c-0.6-0.3-1-0.6-1.3-1.3
				c-0.3-0.6-0.3-1.3,0-1.6c0-0.6,0.3-1,1-1.3C255.5,327.6,256.2,327.6,256.8,327.6z"/>
			<path d="M355.3,338.3v8.4h-43.4c-1.9,0-3.6-0.3-5.5-1c-1.6-0.6-3.2-1.6-4.5-2.9c-1.3-1.3-2.3-2.6-2.9-4.5c-0.6-1.6-1-3.6-1-5.5
				v-10.7c0-1.9,0.3-3.6,1-5.5c0.6-1.6,1.6-3.2,2.9-4.5c1.3-1.3,2.6-2.3,4.5-2.9c1.6-0.6,3.6-1,5.5-1h43.4v8.4h-43.4
				c-1.6,0-2.9,0.6-3.9,1.6c-1,1-1.6,2.3-1.6,3.9v1h46v8.4h-46v1.3c0,1.6,0.6,2.9,1.6,3.9c1,1,2.3,1.6,3.9,1.6L355.3,338.3
				L355.3,338.3z"/>
			<path d="M415,338.3v8.4h-43.4c-1.9,0-3.6-0.3-5.5-1c-1.6-0.6-3.2-1.6-4.5-2.9c-1.3-1.3-2.3-2.6-2.9-4.5c-0.6-1.6-1-3.6-1-5.5
				v-10.7c0-1.9,0.3-3.6,1-5.5c0.6-1.6,1.6-3.2,2.9-4.5c1.3-1.3,2.6-2.3,4.5-2.9c1.6-0.6,3.6-1,5.5-1H415v8.4h-43.4
				c-1.6,0-2.9,0.6-3.9,1.6c-1,1-1.6,2.3-1.6,3.9v10.7c0,1.6,0.6,2.9,1.6,3.9c1,1,2.3,1.6,3.9,1.6L415,338.3L415,338.3z"/>
			<path d="M437,346.7c-2.6,0-5.2-0.6-7.5-1.6c-2.3-1-4.2-2.3-6.2-4.2c-1.6-1.6-3.2-3.9-4.2-6.2c-1-2.3-1.6-4.9-1.6-7.5
				s0.6-5.2,1.6-7.5c1-2.3,2.3-4.5,4.2-6.2c1.6-1.6,3.9-3.2,6.2-4.2c2.3-1,4.9-1.6,7.5-1.6h28.8c2.6,0,5.2,0.6,7.5,1.6
				c2.3,1,4.5,2.3,6.2,4.2c1.6,1.6,3.2,3.9,4.2,6.2c1,2.3,1.6,4.9,1.6,7.5s-0.6,5.2-1.6,7.5c-1,2.3-2.3,4.2-4.2,6.2
				c-1.6,1.6-3.9,3.2-6.2,4.2c-2.3,1-4.9,1.6-7.5,1.6H437z M465.8,338.3c1.6,0,2.9-0.3,4.2-1c1.3-0.6,2.6-1.3,3.6-2.3
				c1-1,1.6-2.3,2.3-3.6c0.6-1.3,1-2.6,1-4.2s-0.3-2.9-1-4.2c-0.6-1.3-1.3-2.6-2.3-3.6c-1-1-2.3-1.6-3.6-2.3c-1.3-0.6-2.6-1-4.2-1
				H437c-1.6,0-2.9,0.3-4.2,1c-1.3,0.6-2.6,1.3-3.6,2.3c-1,1-1.6,2.3-2.3,3.6c-0.6,1.3-1,2.6-1,4.2s0.3,2.9,1,4.2
				c0.6,1.3,1.3,2.6,2.3,3.6c1,1,2.3,1.6,3.6,2.3c1.3,0.6,2.6,1,4.2,1H465.8z"/>
			<path d="M504.4,327.6H530c1.6,0,2.9-0.6,3.9-1.6c1-1,1.6-2.3,1.6-3.9s-0.6-2.9-1.6-3.9c-1-1-2.3-1.6-3.9-1.6h-35v30.1h-8.4v-38.6
				H530c1.9,0,3.9,0.3,5.5,1c1.6,0.6,3.2,1.6,4.5,2.9c1.3,1.3,2.3,2.6,2.9,4.5c0.6,1.6,1,3.6,1,5.5c0,1.9-0.3,3.9-1,5.5
				c-0.6,1.6-1.6,3.2-2.9,4.5c-1.3,1.3-2.6,2.3-4.5,2.9c-1.6,0.6-3.6,1-5.5,1h-4.9l18.5,10.7h-16.5l-24-14.3c-0.6-0.3-1-0.6-1.3-1.3
				c-0.3-0.6-0.3-1.3,0-1.6c0-0.6,0.3-1,1-1.3C503.1,327.6,503.7,327.6,504.4,327.6z"/>
			<path d="M602.9,332.8c0,1.9-0.3,3.6-1,5.5c-0.6,1.6-1.6,3.2-2.9,4.5c-1.3,1.3-2.6,2.3-4.5,2.9c-1.6,0.6-3.6,1-5.5,1h-43.4v-38.6
				H589c1.9,0,3.6,0.3,5.5,1c1.6,0.6,3.2,1.6,4.5,2.9c1.3,1.3,2.3,2.6,2.9,4.5c0.6,1.6,1,3.6,1,5.5V332.8z M589,338.3
				c1.6,0,2.9-0.6,3.9-1.6c1-1,1.6-2.3,1.6-3.9v-10.7c0-1.6-0.6-2.9-1.6-3.9c-1-1-2.3-1.6-3.9-1.6h-35v21.7H589z"/>
		</g>
		<path fill="#010101" d="M516.7,206.7c-13.9,1.9-73.6,24.6-82,27.5c-2.3-4.2-7.8-7.1-13.9-7.1s-11.7,2.9-13.9,7.1
			c-7.1-2.6-68.1-25.6-82-27.9c-14.9-2.3,87.5,36,87.5,70.6h16.5C429.2,242.7,531.6,204.8,516.7,206.7z M420.8,256.6
			c-3.9,0-7.1-2.9-8.7-7.1c-0.6-1.6-1-3.6-1-5.8c0-6.2,3.2-11,7.1-12.6c0.6-0.3,1.3-0.3,2.3-0.3h0.3c0,0,0,0,0.3,0
			c0.6,0,1.3,0,1.6,0.3c4.2,1.3,7.5,6.5,7.5,12.6c0,2.3-0.3,4.2-1,5.8C427.9,254.1,424.7,256.6,420.8,256.6z"/>
		<g>
			<path d="M264.6,365.9c0,1,0,1.6-0.3,2.3c-0.3,0.6-0.6,1.3-1.3,1.9c-0.6,0.6-1.3,1-1.9,1.3s-1.6,0.3-2.3,0.3h-19.1v-17.2h19.1
				c1,0,1.6,0,2.3,0.3c0.6,0.3,1.3,0.6,1.9,1.3c0.6,0.6,1,1.3,1.3,1.9s0.3,1.6,0.3,2.3V365.9z M258.4,368.1c0.6,0,1.3-0.3,1.6-0.6
				s0.6-1,0.6-1.6V361c0-0.6-0.3-1.3-0.6-1.6s-1-0.6-1.6-0.6h-15.6v9.7h15.6V368.1z"/>
			<path d="M275,354.5h12c1,0,1.6,0.3,2.3,0.3c0.6,0,1.3,0.6,1.9,1.3c0.6,0.6,1,1.3,1.3,1.9s0.3,1.6,0.3,2.3v11h-3.9v-4.2H272v4.2
				h-3.2v-11c0-1,0-1.6,0.3-2.3s0.6-1.3,1.3-1.9c0.6-0.6,1.3-1,1.9-1.3S274,354.5,275,354.5z M272.7,363.9h16.9v-3.2
				c0-0.6-0.3-1.3-0.6-1.6c-0.3-0.3-1-0.6-1.6-0.6h-12c-0.6,0-1.3,0.3-1.6,0.6s-0.6,1-0.6,1.6v3.2H272.7z"/>
			<path d="M320.7,354.8v14.9c0,0.6,0,1-0.3,1.3c-0.3,0.3-0.6,0.6-1,1c-0.3,0.3-1,0.3-1.3,0.3s-1-0.3-1.3-0.6l-15.2-12.3V372H298
				v-14.9c0-0.6,0-1,0.3-1.3s0.6-0.6,1-1c0.3-0.3,1-0.3,1.3-0.3s1,0.3,1.3,0.6l15.2,12.3v-12.3h3.6V354.8z"/>
			<path d="M350.8,368.1v3.9h-19.1c-1,0-1.6,0-2.3-0.3c-0.6-0.3-1.3-0.6-1.9-1.3c-0.6-0.6-1-1.3-1.3-1.9s-0.3-1.6-0.3-2.3v-4.9
				c0-1,0-1.6,0.3-2.3c0.3-0.6,0.6-1.3,1.3-1.9c0.6-0.6,1.3-1,1.9-1.3c0.6-0.3,1.6-0.3,2.3-0.3h19.1v3.9h-19.1
				c-0.6,0-1.3,0.3-1.6,0.6s-0.6,1-0.6,1.6v4.9c0,0.6,0.3,1.3,0.6,1.6s1,0.6,1.6,0.6h19.1V368.1z"/>
			<path d="M380,368.1v3.9h-19.1c-1,0-1.6,0-2.3-0.3s-1.3-0.6-1.9-1.3c-0.6-0.6-1-1.3-1.3-1.9s-0.3-1.6-0.3-2.3v-4.9
				c0-1,0-1.6,0.3-2.3c0.3-0.6,0.6-1.3,1.3-1.9c0.6-0.6,1.3-1,1.9-1.3s1.6-0.3,2.3-0.3H380v3.9h-19.1c-0.6,0-1.3,0.3-1.6,0.6
				s-0.6,1-0.6,1.6v0.6H379v3.9h-20.4v0.6c0,0.6,0.3,1.3,0.6,1.6c0.3,0.3,1,0.6,1.6,0.6H380V368.1z"/>
			<path d="M406.2,354.8l7.5,13.6c0.3,0.3,0.6,0.6,1,0.6s1-0.3,1-0.6l3.2-5.8l-4.2-7.8h4.2l2.3,3.9l2.3-3.9h4.2l-4.2,7.8l3.2,5.8
				c0,0.3,0.3,0.3,0.3,0.3c0.3,0,0.3,0,0.6,0c0.3,0,0.3,0,0.6,0s0.3-0.3,0.3-0.3l7.5-13.6h4.2l-8.7,15.2c-0.3,1-1,1.6-1.9,1.9
				c-0.6,0.3-1.6,0.6-2.3,0.6c-1,0-1.6-0.3-2.6-0.6c-0.6-0.3-1.3-1-1.9-1.9l-2.3-3.9l-2.3,3.9c-0.3,1-1,1.6-1.9,1.9
				c-0.6,0.3-1.6,0.6-2.6,0.6s-1.6-0.3-2.6-0.6c-0.6-0.3-1.3-1-1.9-1.9l-8.7-15.2H406.2z"/>
			<path d="M470,368.1v3.9h-19.1c-1,0-1.6,0-2.3-0.3s-1.3-0.6-1.9-1.3c-0.6-0.6-1-1.3-1.3-1.9s-0.3-1.6-0.3-2.3v-4.9
				c0-1,0-1.6,0.3-2.3c0.3-0.6,0.6-1.3,1.3-1.9c0.6-0.6,1.3-1,1.9-1.3s1.6-0.3,2.3-0.3H470v3.9h-19.1c-0.6,0-1.3,0.3-1.6,0.6
				s-0.6,1-0.6,1.6v0.6h20.4v3.9h-20.4v0.6c0,0.6,0.3,1.3,0.6,1.6c0.3,0.3,1,0.6,1.6,0.6H470V368.1z"/>
			<path d="M512.5,368.1v3.9h-14.3c-1,0-1.6,0-2.3-0.3s-1.3-0.6-1.9-1.3c-0.6-0.6-1-1.3-1.3-1.9c-0.3-0.6-0.3-1.6-0.3-2.3v-11h3.9
				v11c0,0.6,0.3,1.3,0.6,1.6s1,0.6,1.6,0.6h13.9V368.1z"/>
			<path d="M524.2,372c-1.3,0-2.3-0.3-3.2-0.6c-1-0.3-1.9-1-2.6-1.9c-0.6-0.6-1.3-1.6-1.9-2.6c-0.3-1-0.6-2.3-0.6-3.2
				c0-1.3,0.3-2.3,0.6-3.2c0.3-1,1-1.9,1.9-2.6c0.6-0.6,1.6-1.3,2.6-1.9c1-0.3,2.3-0.6,3.2-0.6h12.6c1.3,0,2.3,0.3,3.2,0.6
				s1.9,1,2.6,1.9c0.6,0.6,1.3,1.6,1.9,2.6c0.3,1,0.6,2.3,0.6,3.2c0,1.3-0.3,2.3-0.6,3.2c-0.3,1-1,1.9-1.9,2.6
				c-0.6,0.6-1.6,1.3-2.6,1.9c-1,0.3-2.3,0.6-3.2,0.6H524.2z M536.8,368.1c0.6,0,1.3,0,1.9-0.3s1-0.6,1.6-1c0.3-0.3,0.6-1,1-1.6
				c0.3-0.6,0.3-1.3,0.3-1.9c0-0.6,0-1.3-0.3-1.9c-0.3-0.6-0.6-1-1-1.6c-0.3-0.6-1-0.6-1.6-1c-0.6-0.3-1.3-0.3-1.9-0.3h-12.6
				c-0.6,0-1.3,0-1.9,0.3c-0.6,0.3-1,0.6-1.6,1c-0.3,0.3-0.6,1-1,1.6c-0.3,0.6-0.3,1.3-0.3,1.9c0,0.6,0,1.3,0.3,1.9
				c0.3,0.6,0.6,1,1,1.6c0.3,0.3,1,0.6,1.6,1c0.6,0.3,1.3,0.3,1.9,0.3H536.8z"/>
			<path d="M553,354.8l7.5,13.6c0.3,0.3,0.6,0.6,1,0.6c0.3,0,1-0.3,1-0.6l7.5-13.6h4.2l-8.7,15.2c-0.3,1-1,1.6-1.9,1.9
				c-0.6,0.3-1.6,0.6-2.6,0.6s-1.6-0.3-2.6-0.6c-0.6-0.3-1.3-1-1.9-1.9l-8.7-15.2H553z"/>
			<path d="M602.6,368.1v3.9h-19.4c-1,0-1.6,0-2.3-0.3s-1.3-0.6-1.9-1.3c-0.6-0.6-1-1.3-1.3-1.9c-0.3-0.6-0.3-1.6-0.3-2.3v-4.9
				c0-1,0.3-1.6,0.3-2.3c0.3-0.6,0.6-1.3,1.3-1.9c0.6-0.6,1.3-1,1.9-1.3s1.6-0.3,2.3-0.3h19.1v3.9h-19.1c-0.6,0-1.3,0.3-1.6,0.6
				s-0.6,1-0.6,1.6v0.6h20.4v3.9h-20.4v0.6c0,0.6,0.3,1.3,0.6,1.6c0.3,0.3,1,0.6,1.6,0.6h19.4V368.1z"/>
		</g>
	</g>
</g>
<g>
	<polygon fill="none" stroke="#5DBDB8" stroke-width="4" stroke-miterlimit="10" points="-22.2,-59.6 -101.1,-14.1 -179.9,-59.6 
		-179.9,-150.7 -101.1,-196.2 -22.2,-150.7 	"/>
	<g>
		<path d="M-97.4-79.3h-3.3V-89c0-0.7,0.1-1.5,0.4-2.1c0.3-0.7,0.7-1.2,1.2-1.7c0.5-0.5,1.1-0.9,1.7-1.2c0.7-0.3,1.4-0.4,2.1-0.4
			h12.6v3.3h-12.6c-0.6,0-1.1,0.2-1.5,0.6c-0.4,0.4-0.6,0.9-0.6,1.5v2.1h14.7v3.3h-14.7C-97.4-83.6-97.4-79.3-97.4-79.3z"/>
		<path d="M-81.7-79.3v-13.3c0-0.5,0.1-0.9,0.3-1.3c0.2-0.4,0.5-0.6,0.8-0.8c0.3-0.1,0.7-0.2,1-0.1c0.3,0.1,0.7,0.3,1,0.7l8.2,11.4
			l8.2-11.4c0.3-0.4,0.6-0.6,1-0.7c0.4-0.1,0.7,0,1,0.1c0.3,0.1,0.6,0.4,0.8,0.8c0.2,0.4,0.3,0.8,0.3,1.3v13.3h-2.7v-10.4l-7.2,10
			c-0.2,0.3-0.4,0.4-0.6,0.6c-0.2,0.1-0.5,0.2-0.7,0.2c-0.3,0-0.5-0.1-0.7-0.2c-0.2-0.1-0.4-0.3-0.6-0.6L-79-89.8v10.4L-81.7-79.3
			L-81.7-79.3z"/>
		<g>
			<g>
				<path d="M-143.1-78.9V-130h18.8c7,0,12.6,2.5,16.8,7.4c4.2,4.9,6.3,11,6.3,18.3c0,7.2-2.2,13.3-6.5,18.2
					c-4.3,4.9-10.6,7.3-18.7,7.3L-143.1-78.9L-143.1-78.9z M-133.7-86.4h7.7c4.1,0,7.6-1.5,10.5-4.6c2.9-3.1,4.3-7.7,4.3-13.8
					c0-5-1.3-9.2-3.8-12.7s-5.8-5.2-9.9-5.2h-8.8V-86.4z"/>
			</g>
			<g>
				<path fill="#C7C7C7" d="M-141.4-80.3v-51.1h18.8c7,0,12.6,2.5,16.8,7.4c4.2,4.9,6.3,11,6.3,18.3c0,7.2-2.2,13.3-6.5,18.2
					c-4.3,4.9-10.6,7.3-18.7,7.3L-141.4-80.3L-141.4-80.3z M-132-87.8h7.7c4.1,0,7.6-1.5,10.5-4.6c2.9-3.1,4.3-7.7,4.3-13.8
					c0-5-1.3-9.2-3.8-12.7s-5.8-5.2-9.9-5.2h-8.8V-87.8z"/>
			</g>
		</g>
	</g>
</g>
<path fill="#68AF23" d="M499.8,338c-0.1-0.3-0.3-0.6-0.4-0.9C499.5,337.3,499.7,337.6,499.8,338z"/>
<g>
	<polygon fill="none" stroke="#6EC2BF" stroke-width="4" stroke-miterlimit="10" points="710.8,-100.1 631.9,-54.5 553.1,-100.1 
		553.1,-191.1 631.9,-236.6 710.8,-191.1 	"/>
	<g>
		<g>
			<path fill="#3C3B3C" d="M633-164.3c-3-1.7-7.4,0.5-9.9,4.8c-2.5,4.3-2.1,9.3,0.9,10.9c3,1.7,7.4-0.5,9.9-4.8S636-162.6,633-164.3
				z M631.7-155.5c-0.9,2.2-2.9,3.6-4.3,2.9c-1.5-0.6-1.9-2.9-1-5.2c0.9-2.2,2.9-3.6,4.3-2.9C632.2-160,632.7-157.7,631.7-155.5z"/>
			<path fill="#3C3B3C" d="M584.2-162L584.2-162c0,0,6.7,1.5,6.7,2.3l0,0l0,0c-0.2,0.8-1.9,1.9-2.8,2.2c-0.1,0-0.1,0-0.2,0
				c-1.1,0.2-2.4,0.3-4,0.3c-9.5-0.2-13.2,11.2-5.2,10.4c8-0.8,8.7-1.6,8.7-1.6l0,0l-1.2,4c-1.5,1-4.3,1.8-9.2,2.1
				c-14.2,0.8-10.6-7.5-10.3-9c0.4-1.5,7.5-9.1,12.9-7.8c5.4,1.2-7.5-2.1-0.2-8.6c5.3-4.7,11.8-4.4,15-3.9l-1.4,4.7
				C588.8-166.5,579.8-165.3,584.2-162z"/>
			<path fill="#3C3B3C" d="M590.9-159.6l-0.4,1.3c-0.6,0.3-1.4,0.6-2.4,0.8C588.9-157.7,590.6-158.9,590.9-159.6z"/>
			<path fill="#3C3B3C" d="M610-161c0,0.1,0,0.1-0.1,0.2l0,0l-5.6,14.7c0,0-4.7,0.5-9.4,0.9c-5.6,0-4.7-5.9-4.5-6.9
				c0-0.1,0-0.2,0-0.2c1-4.4,2.9-9.3,2.9-9.3c6.4-1.2,5.5,1,5.5,1c-5.7,11.9,0,13.1,1.7,11.3c1.4-1.4,3.3-8.7,4-11.7
				c0,0,0.3-1.3,2.8-1.3C609.7-162.2,610.4-162.2,610-161z"/>
			<path fill="#717170" d="M629-142.5c0,0.1,0,0.1-0.1,0.2l0,0l-4.3,11.2c0,0-3.6,0.4-7.2,0.6c-4.3,0-3.6-4.5-3.4-5.3
				c0-0.1,0-0.1,0-0.1c0.7-3.4,2.2-7.1,2.2-7.1c4.9-0.9,4.2,0.8,4.2,0.8c-4.3,9.1,0,9.9,1.3,8.6c1-1.1,2.5-6.6,3.1-8.9
				c0,0,0.2-1,2.1-1C628.7-143.4,629.3-143.4,629-142.5z"/>
			<path fill="#3C3B3C" d="M621.3-159.6c0,0-7.3-2.4-8.8,12.4l-5.1,0.6c0-0.5,1.2-18.2,14.5-16.9
				C621.9-163.5,622.7-159.9,621.3-159.6z"/>
			<path fill="#717170" d="M595.9-140.9l-4.1,13.4h3.2c0.8-2.9,2.1-3.4,2.1-3.4c3.6-0.1,5.5-1,6.4-1.8c0.4-0.3,0.6-0.7,0.8-1l0,0
				c0,0,0.1-0.1,0.1-0.3c0.1-0.3,0.3-0.7,0.4-1l0,0C608.5-142.8,595.9-140.9,595.9-140.9z M601.3-135.8c-0.5,1.4-1.6,2.2-2.5,1.9
				c-0.8-0.3-1.1-1.7-0.6-3c0.5-1.4,1.6-2.2,2.5-1.9C601.6-138.5,601.9-137.1,601.3-135.8z"/>
			<path fill="#3C3B3C" d="M638.9-164l-4.6,14.7h3.6c0.9-3.2,2.3-3.7,2.3-3.7c4-0.1,6-1.1,7-2c0.4-0.4,0.7-0.8,0.9-1.1l0,0
				c0,0,0.1-0.1,0.1-0.4c0.1-0.3,0.3-0.8,0.5-1.1l0,0C652.7-166.2,638.9-164,638.9-164z M644.8-158.4c-0.6,1.5-1.8,2.4-2.7,2.1
				c-0.9-0.4-1.2-1.9-0.6-3.3c0.6-1.5,1.8-2.4,2.7-2.1C645.1-161.4,645.4-159.9,644.8-158.4z"/>
			<path fill="#424090" d="M649.3-150.5c-0.1-0.4-0.1-0.7-0.1-0.7l0,0C649.2-151,649.2-150.7,649.3-150.5z"/>
			<path fill="#424090" d="M649-152.7L649-152.7L649-152.7L649-152.7z"/>
			<path fill="#3C3B3C" d="M657.8-160.8c-0.7,0-1.6,0.1-2.4,0.3C656.1-160.7,656.9-160.8,657.8-160.8z"/>
			<path fill="#3C3B3C" d="M659.5-164.3L659.5-164.3c-0.2,0-0.3,0-0.3,0c-0.8,0-1.8,0.1-2.7,0.3c-0.1,0-0.2,0-0.2,0.1
				c-6.1,1.7-7,7.9-7.2,8.8l0,0v0.1c0,0.5,0.1,1.1,0.2,1.7c0,0.3,0.1,0.5,0.1,0.8c0.3,0.9,1.1,2.3,3.6,2.3h6.6c0,0,0-0.1,0.1-0.2
				l0,0l2.8-13.8C661.8-164.2,660.8-164.3,659.5-164.3z M653.7-152.9c-1-0.4-1-2.5-0.1-4.8c0.9-2.2,2.4-3.7,3.4-3.3
				c1,0.4,1,2.5,0.1,4.8C656.2-154,654.7-152.5,653.7-152.9z"/>
			<path fill="#717170" d="M612.9-133l-1.4,3.1l0,0c-0.1,0-0.2,0.1-0.3,0.1c-0.9,0.3-2.2,0.6-2.3,0.7c-7.4,1.1-0.2-13.4-0.2-13.4
				c1.5-0.7,4.1,0,4.1,0c-3.1,5.3-3.1,9.2-2.9,9.7c0.2,0.4,2-0.2,2.8-0.2C612.8-133.1,612.9-133.1,612.9-133z"/>
			<path fill="#717170" d="M634.7-139.2c0,0,0.9,0.3,1.5,1.1c0.2,0.3,0.3,0.6,0.5,1l0,0c0.7,2,0.4,4.9-8,5.8h-0.5v-2.5
				c0,0,3.3-0.3,4.8-1c-0.2-1-1.5-2.2-1.7-2.4l0,0l0,0c0,0-5.2-6.2,6.3-7.4c0,0,1.1,0.8,0,2.3C637.6-142.3,629.4-140.9,634.7-139.2z
				"/>
		</g>
		<path fill="#343434" d="M576.7-108.6c0,0,63.4-15,77.2-24.4C653.9-132.9,635.8-112.8,576.7-108.6z"/>
		<path fill="#939393" stroke="#6B6B6B" stroke-width="2" stroke-miterlimit="10" d="M607.3-105.2c0,0,44.6-15.1,53-30.2l0.5-0.9
			l-9.3-6.5l15.8-2.2l10-19.9l1.7,17.4l18.6-2.2l-16.3,13.6l1.2,15.4l-11.8-9.3C670.8-129.8,638.6-109.4,607.3-105.2z"/>
	</g>
</g>
<g>
	<polygon fill="none" stroke="#6EC2C0" stroke-width="4" stroke-miterlimit="10" points="241.6,-111.5 162.7,-66 83.9,-111.5 
		83.9,-202.5 162.7,-248.1 241.6,-202.5 	"/>
	<g>
		<g>
			<path fill="#7BCCE8" d="M200.6-150l2.4-35.5l-20.1,5.6l-0.5,7.6l5.9-1.8c0,0-1.1,14.5-1.3,19.4c-0.2,5-2.7,6.5-4.8,6.4
				c-2.1-0.1-9.4-5.5-9.4-5.5l0.1-1.2c9.9-2.7,9.4-10.8,9.4-10.8c1.1-11.4-12.2-10.7-12.2-10.7l-23.2,6l-0.5,8l2.6-0.2l-0.6,8.3
				L136-167.7l-16.1,4.6l-0.5,8l4.4-1.6l-1.5,21.6l-4.4,1.3l-0.5,7.6l18.7-5.3l1-16.2l7.7,10.5l1.9,2.7l7.8-2.2
				c0,0,3.8-7.5,10.8-3.1l0,0c6,5.4,17.7,5.6,17.7,5.6C200.6-136,200.6-150,200.6-150z M162.3-166.6c0,0,8.2-3,7.8,2.1
				c-0.4,5.1-8.4,5.2-8.4,5.2L162.3-166.6z"/>
			
				<ellipse transform="matrix(6.755385e-002 -0.9977 0.9977 6.755385e-002 374.4396 12.6677)" fill="#7BCCE8" cx="194" cy="-194" rx="8.6" ry="8.3"/>
		</g>
		<g>
			<path fill="#515050" d="M202-150.6l2.4-35.5l-20.1,5.6l-0.5,7.6l5.9-1.8c0,0-1.1,14.5-1.3,19.4c-0.2,5-2.7,6.5-4.8,6.4
				s-9.4-5.5-9.4-5.5l0.1-1.2c9.9-2.7,9.4-10.8,9.4-10.8c1.1-11.4-12.2-10.7-12.2-10.7l-23.2,6l-0.5,8l2.6-0.2l-0.6,8.3l-12.4-13.3
				l-16.1,4.6l-0.5,8l4.4-1.6l-1.5,21.6l-4.4,1.3l-0.5,7.6l18.7-5.3l1-16.2l7.7,10.5l1.9,2.7l7.8-2.2c0,0,3.8-7.5,10.8-3.1l0,0
				c6,5.4,17.7,5.6,17.7,5.6C202-136.6,202-150.6,202-150.6z M163.6-167.3c0,0,8.2-3,7.8,2.1c-0.4,5.1-8.4,5.2-8.4,5.2L163.6-167.3z
				"/>
			
				<ellipse transform="matrix(6.755385e-002 -0.9977 0.9977 6.755385e-002 376.4454 13.4147)" fill="#515050" cx="195.4" cy="-194.7" rx="8.6" ry="8.3"/>
		</g>
	</g>
</g>
<line fill="none" stroke="#6B6B6B" stroke-width="0.5" stroke-miterlimit="10" x1="-541.4" y1="-541.8" x2="-541.4" y2="-425.4"/>
<g>
	<polygon fill="none" stroke="#6EC2BF" stroke-width="4" stroke-miterlimit="10" points="-462.5,-587.4 -541.4,-541.8 
		-620.2,-587.4 -620.2,-678.4 -541.4,-723.9 -462.5,-678.4 	"/>
	<g>
		<g>
			<path d="M-592-623.7h7.9c0.5,0,0.9-0.2,1.2-0.5c0.3-0.3,0.5-0.7,0.5-1.2c0-0.5-0.2-0.9-0.5-1.2s-0.7-0.5-1.2-0.5h-10.8v9.3h-2.6
				v-11.9h13.4c0.6,0,1.1,0.1,1.7,0.3c0.5,0.2,1,0.5,1.4,0.9s0.7,0.8,0.9,1.4c0.2,0.5,0.3,1.1,0.3,1.7s-0.1,1.2-0.3,1.7
				c-0.2,0.5-0.5,1-0.9,1.4c-0.4,0.4-0.8,0.7-1.4,0.9c-0.5,0.2-1.1,0.3-1.7,0.3h-1.5l5.7,3.3h-5.1l-7.4-4.4
				c-0.2-0.1-0.3-0.2-0.4-0.4c-0.1-0.2-0.1-0.4,0-0.5c0-0.2,0.1-0.3,0.3-0.4C-592.4-623.6-592.2-623.7-592-623.7z"/>
			<path d="M-561.7-620.3v2.6H-575c-0.6,0-1.1-0.1-1.7-0.3c-0.5-0.2-1-0.5-1.4-0.9c-0.4-0.4-0.7-0.8-0.9-1.4
				c-0.2-0.5-0.3-1.1-0.3-1.7v-3.3c0-0.6,0.1-1.1,0.3-1.7c0.2-0.5,0.5-1,0.9-1.4s0.8-0.7,1.4-0.9c0.5-0.2,1.1-0.3,1.7-0.3h13.4v2.6
				H-575c-0.5,0-0.9,0.2-1.2,0.5s-0.5,0.7-0.5,1.2v0.3h14.2v2.6h-14.2v0.4c0,0.5,0.2,0.9,0.5,1.2s0.7,0.5,1.2,0.5L-561.7-620.3
				L-561.7-620.3z"/>
			<path d="M-543.2-620.3v2.6h-13.4c-0.6,0-1.1-0.1-1.7-0.3c-0.5-0.2-1-0.5-1.4-0.9c-0.4-0.4-0.7-0.8-0.9-1.4
				c-0.2-0.5-0.3-1.1-0.3-1.7v-3.3c0-0.6,0.1-1.1,0.3-1.7c0.2-0.5,0.5-1,0.9-1.4s0.8-0.7,1.4-0.9c0.5-0.2,1.1-0.3,1.7-0.3h13.4v2.6
				h-13.4c-0.5,0-0.9,0.2-1.2,0.5s-0.5,0.7-0.5,1.2v3.3c0,0.5,0.2,0.9,0.5,1.2s0.7,0.5,1.2,0.5L-543.2-620.3L-543.2-620.3z"/>
			<path d="M-536.4-617.7c-0.8,0-1.6-0.2-2.3-0.5c-0.7-0.3-1.3-0.7-1.9-1.3c-0.5-0.5-1-1.2-1.3-1.9c-0.3-0.7-0.5-1.5-0.5-2.3
				c0-0.8,0.2-1.6,0.5-2.3c0.3-0.7,0.7-1.4,1.3-1.9c0.5-0.5,1.2-1,1.9-1.3c0.7-0.3,1.5-0.5,2.3-0.5h8.9c0.8,0,1.6,0.2,2.3,0.5
				c0.7,0.3,1.4,0.7,1.9,1.3c0.5,0.5,1,1.2,1.3,1.9c0.3,0.7,0.5,1.5,0.5,2.3c0,0.8-0.2,1.6-0.5,2.3c-0.3,0.7-0.7,1.3-1.3,1.9
				c-0.5,0.5-1.2,1-1.9,1.3c-0.7,0.3-1.5,0.5-2.3,0.5H-536.4z M-527.5-620.3c0.5,0,0.9-0.1,1.3-0.3c0.4-0.2,0.8-0.4,1.1-0.7
				s0.5-0.7,0.7-1.1c0.2-0.4,0.3-0.8,0.3-1.3c0-0.5-0.1-0.9-0.3-1.3c-0.2-0.4-0.4-0.8-0.7-1.1c-0.3-0.3-0.7-0.5-1.1-0.7
				s-0.8-0.3-1.3-0.3h-8.9c-0.5,0-0.9,0.1-1.3,0.3s-0.8,0.4-1.1,0.7c-0.3,0.3-0.5,0.7-0.7,1.1c-0.2,0.4-0.3,0.8-0.3,1.3
				c0,0.5,0.1,0.9,0.3,1.3s0.4,0.8,0.7,1.1s0.7,0.5,1.1,0.7c0.4,0.2,0.8,0.3,1.3,0.3H-527.5z"/>
			<path d="M-515.6-623.7h7.9c0.5,0,0.9-0.2,1.2-0.5c0.3-0.3,0.5-0.7,0.5-1.2c0-0.5-0.2-0.9-0.5-1.2s-0.7-0.5-1.2-0.5h-10.8v9.3
				h-2.6v-11.9h13.4c0.6,0,1.2,0.1,1.7,0.3c0.5,0.2,1,0.5,1.4,0.9c0.4,0.4,0.7,0.8,0.9,1.4c0.2,0.5,0.3,1.1,0.3,1.7
				s-0.1,1.2-0.3,1.7c-0.2,0.5-0.5,1-0.9,1.4c-0.4,0.4-0.8,0.7-1.4,0.9c-0.5,0.2-1.1,0.3-1.7,0.3h-1.5l5.7,3.3h-5.1l-7.4-4.4
				c-0.2-0.1-0.3-0.2-0.4-0.4c-0.1-0.2-0.1-0.4,0-0.5c0-0.2,0.1-0.3,0.3-0.4C-516-623.6-515.8-623.7-515.6-623.7z"/>
			<path d="M-485.3-622c0,0.6-0.1,1.1-0.3,1.7c-0.2,0.5-0.5,1-0.9,1.4c-0.4,0.4-0.8,0.7-1.4,0.9c-0.5,0.2-1.1,0.3-1.7,0.3H-503
				v-11.9h13.4c0.6,0,1.1,0.1,1.7,0.3c0.5,0.2,1,0.5,1.4,0.9s0.7,0.8,0.9,1.4c0.2,0.5,0.3,1.1,0.3,1.7V-622z M-489.5-620.3
				c0.5,0,0.9-0.2,1.2-0.5c0.3-0.3,0.5-0.7,0.5-1.2v-3.3c0-0.5-0.2-0.9-0.5-1.2s-0.7-0.5-1.2-0.5h-10.8v6.7H-489.5z"/>
		</g>
		<path fill="#010101" d="M-511.8-660.9c-4.3,0.6-22.7,7.6-25.3,8.5c-0.7-1.3-2.4-2.2-4.3-2.2c-1.9,0-3.6,0.9-4.3,2.2
			c-2.2-0.8-21-7.9-25.3-8.6c-4.6-0.7,27,11.1,27,21.8h5.1C-538.8-649.8-507.3-661.5-511.8-660.9z M-541.4-645.5
			c-1.2,0-2.2-0.9-2.7-2.2c-0.2-0.5-0.3-1.1-0.3-1.8c0-1.9,1-3.4,2.2-3.9c0.2-0.1,0.4-0.1,0.7-0.1h0.1c0,0,0,0,0.1,0
			c0.2,0,0.4,0,0.5,0.1c1.3,0.4,2.3,2,2.3,3.9c0,0.7-0.1,1.3-0.3,1.8C-539.3-646.4-540.2-645.5-541.4-645.5z"/>
		<g>
			<path d="M-589.6-611.9c0,0.3,0,0.5-0.1,0.7c-0.1,0.2-0.2,0.4-0.4,0.6c-0.2,0.2-0.4,0.3-0.6,0.4c-0.2,0.1-0.5,0.1-0.7,0.1h-5.9
				v-5.3h5.9c0.3,0,0.5,0,0.7,0.1s0.4,0.2,0.6,0.4c0.2,0.2,0.3,0.4,0.4,0.6c0.1,0.2,0.1,0.5,0.1,0.7V-611.9z M-591.5-611.1
				c0.2,0,0.4-0.1,0.5-0.2c0.1-0.1,0.2-0.3,0.2-0.5v-1.5c0-0.2-0.1-0.4-0.2-0.5c-0.1-0.1-0.3-0.2-0.5-0.2h-4.8v3L-591.5-611.1
				L-591.5-611.1z"/>
			<path d="M-586.4-615.3h3.7c0.3,0,0.5,0.1,0.7,0.1c0.2,0.1,0.4,0.2,0.6,0.4c0.2,0.2,0.3,0.4,0.4,0.6c0.1,0.2,0.1,0.5,0.1,0.7v3.4
				h-1.2v-1.3h-5.2v1.3h-1.2v-3.4c0-0.3,0-0.5,0.1-0.7s0.2-0.4,0.4-0.6s0.4-0.3,0.6-0.4C-586.9-615.2-586.7-615.3-586.4-615.3z
				 M-587.2-612.4h5.2v-1c0-0.2-0.1-0.4-0.2-0.5s-0.3-0.2-0.5-0.2h-3.7c-0.2,0-0.4,0.1-0.5,0.2c-0.1,0.1-0.2,0.3-0.2,0.5
				L-587.2-612.4L-587.2-612.4z"/>
			<path d="M-572.3-615.2v4.6c0,0.2,0,0.3-0.1,0.4c-0.1,0.1-0.2,0.2-0.3,0.3s-0.3,0.1-0.4,0.1s-0.3-0.1-0.4-0.2l-4.7-3.8v3.9h-1.1
				v-4.6c0-0.2,0-0.3,0.1-0.4c0.1-0.1,0.2-0.2,0.3-0.3s0.3-0.1,0.4-0.1s0.3,0.1,0.4,0.2l4.7,3.8v-3.8h1.1V-615.2z"/>
			<path d="M-563.1-611.1v1.2h-5.9c-0.3,0-0.5,0-0.7-0.1s-0.4-0.2-0.6-0.4c-0.2-0.2-0.3-0.4-0.4-0.6c-0.1-0.2-0.1-0.5-0.1-0.7v-1.5
				c0-0.3,0-0.5,0.1-0.7s0.2-0.4,0.4-0.6c0.2-0.2,0.4-0.3,0.6-0.4c0.2-0.1,0.5-0.1,0.7-0.1h5.9v1.2h-5.9c-0.2,0-0.4,0.1-0.5,0.2
				c-0.1,0.1-0.2,0.3-0.2,0.5v1.5c0,0.2,0.1,0.4,0.2,0.5c0.1,0.1,0.3,0.2,0.5,0.2h5.9V-611.1z"/>
			<path d="M-554-611.1v1.2h-5.9c-0.3,0-0.5,0-0.7-0.1s-0.4-0.2-0.6-0.4c-0.2-0.2-0.3-0.4-0.4-0.6c-0.1-0.2-0.1-0.5-0.1-0.7v-1.5
				c0-0.3,0-0.5,0.1-0.7s0.2-0.4,0.4-0.6c0.2-0.2,0.4-0.3,0.6-0.4c0.2-0.1,0.5-0.1,0.7-0.1h5.9v1.2h-5.9c-0.2,0-0.4,0.1-0.5,0.2
				c-0.1,0.1-0.2,0.3-0.2,0.5v0.2h6.3v1.2h-6.3v0.2c0,0.2,0.1,0.4,0.2,0.5c0.1,0.1,0.3,0.2,0.5,0.2h5.9V-611.1z"/>
			<path d="M-545.9-615.2l2.3,4.2c0.1,0.1,0.2,0.2,0.3,0.2s0.3-0.1,0.3-0.2l1-1.8l-1.3-2.4h1.3l0.7,1.2l0.7-1.2h1.3l-1.3,2.4l1,1.8
				c0,0.1,0.1,0.1,0.1,0.1c0.1,0,0.1,0,0.2,0s0.1,0,0.2,0c0.1,0,0.1-0.1,0.1-0.1l2.3-4.2h1.3l-2.7,4.7c-0.1,0.3-0.3,0.5-0.6,0.6
				c-0.2,0.1-0.5,0.2-0.7,0.2c-0.3,0-0.5-0.1-0.8-0.2c-0.2-0.1-0.4-0.3-0.6-0.6l-0.7-1.2l-0.7,1.2c-0.1,0.3-0.3,0.5-0.6,0.6
				c-0.2,0.1-0.5,0.2-0.8,0.2c-0.3,0-0.5-0.1-0.8-0.2c-0.2-0.1-0.4-0.3-0.6-0.6l-2.7-4.7H-545.9z"/>
			<path d="M-526.3-611.1v1.2h-5.9c-0.3,0-0.5,0-0.7-0.1c-0.2-0.1-0.4-0.2-0.6-0.4c-0.2-0.2-0.3-0.4-0.4-0.6
				c-0.1-0.2-0.1-0.5-0.1-0.7v-1.5c0-0.3,0-0.5,0.1-0.7s0.2-0.4,0.4-0.6c0.2-0.2,0.4-0.3,0.6-0.4c0.2-0.1,0.5-0.1,0.7-0.1h5.9v1.2
				h-5.9c-0.2,0-0.4,0.1-0.5,0.2c-0.1,0.1-0.2,0.3-0.2,0.5v0.2h6.3v1.2h-6.3v0.2c0,0.2,0.1,0.4,0.2,0.5s0.3,0.2,0.5,0.2h5.9V-611.1z
				"/>
			<path d="M-513.2-611.1v1.2h-4.4c-0.3,0-0.5,0-0.7-0.1c-0.2-0.1-0.4-0.2-0.6-0.4c-0.2-0.2-0.3-0.4-0.4-0.6
				c-0.1-0.2-0.1-0.5-0.1-0.7v-3.4h1.2v3.4c0,0.2,0.1,0.4,0.2,0.5c0.1,0.1,0.3,0.2,0.5,0.2h4.3V-611.1z"/>
			<path d="M-509.6-610c-0.4,0-0.7-0.1-1-0.2c-0.3-0.1-0.6-0.3-0.8-0.6c-0.2-0.2-0.4-0.5-0.6-0.8c-0.1-0.3-0.2-0.7-0.2-1
				s0.1-0.7,0.2-1c0.1-0.3,0.3-0.6,0.6-0.8c0.2-0.2,0.5-0.4,0.8-0.6c0.3-0.1,0.7-0.2,1-0.2h3.9c0.4,0,0.7,0.1,1,0.2
				c0.3,0.1,0.6,0.3,0.8,0.6c0.2,0.2,0.4,0.5,0.6,0.8c0.1,0.3,0.2,0.7,0.2,1s-0.1,0.7-0.2,1c-0.1,0.3-0.3,0.6-0.6,0.8
				c-0.2,0.2-0.5,0.4-0.8,0.6c-0.3,0.1-0.7,0.2-1,0.2H-509.6z M-505.6-611.1c0.2,0,0.4,0,0.6-0.1c0.2-0.1,0.3-0.2,0.5-0.3
				c0.1-0.1,0.2-0.3,0.3-0.5c0.1-0.2,0.1-0.4,0.1-0.6s0-0.4-0.1-0.6c-0.1-0.2-0.2-0.3-0.3-0.5s-0.3-0.2-0.5-0.3
				c-0.2-0.1-0.4-0.1-0.6-0.1h-3.9c-0.2,0-0.4,0-0.6,0.1s-0.3,0.2-0.5,0.3c-0.1,0.1-0.2,0.3-0.3,0.5c-0.1,0.2-0.1,0.4-0.1,0.6
				s0,0.4,0.1,0.6c0.1,0.2,0.2,0.3,0.3,0.5c0.1,0.1,0.3,0.2,0.5,0.3s0.4,0.1,0.6,0.1H-505.6z"/>
			<path d="M-500.6-615.2l2.3,4.2c0.1,0.1,0.2,0.2,0.3,0.2c0.1,0,0.3-0.1,0.3-0.2l2.3-4.2h1.3l-2.7,4.7c-0.1,0.3-0.3,0.5-0.6,0.6
				c-0.2,0.1-0.5,0.2-0.8,0.2s-0.5-0.1-0.8-0.2c-0.2-0.1-0.4-0.3-0.6-0.6l-2.7-4.7H-500.6z"/>
			<path d="M-485.3-611.1v1.2h-5.9c-0.3,0-0.5,0-0.7-0.1s-0.4-0.2-0.6-0.4c-0.2-0.2-0.3-0.4-0.4-0.6c-0.1-0.2-0.1-0.5-0.1-0.7v-1.5
				c0-0.3,0.1-0.5,0.1-0.7c0.1-0.2,0.2-0.4,0.4-0.6c0.2-0.2,0.4-0.3,0.6-0.4c0.2-0.1,0.5-0.1,0.7-0.1h5.9v1.2h-5.9
				c-0.2,0-0.4,0.1-0.5,0.2c-0.1,0.1-0.2,0.3-0.2,0.5v0.2h6.3v1.2h-6.3v0.2c0,0.2,0.1,0.4,0.2,0.5s0.3,0.2,0.5,0.2h5.9V-611.1z"/>
		</g>
	</g>
</g>
<g>
	<polygon fill="none" stroke="#5DBDB8" stroke-width="4" stroke-miterlimit="10" points="-551.7,-438.9 -630.5,-393.4 
		-709.4,-438.9 -709.4,-530 -630.5,-575.5 -551.7,-530 	"/>
	<g>
		<path d="M-626.9-458.6h-3.3v-9.6c0-0.7,0.1-1.5,0.4-2.1c0.3-0.6,0.7-1.2,1.2-1.7c0.5-0.5,1.1-0.9,1.7-1.2c0.7-0.3,1.4-0.4,2.1-0.4
			h12.6v3.3h-12.6c-0.6,0-1.1,0.2-1.5,0.6c-0.4,0.4-0.6,0.9-0.6,1.5v2.1h14.7v3.3h-14.7L-626.9-458.6L-626.9-458.6z"/>
		<path d="M-611.2-458.6v-13.3c0-0.5,0.1-0.9,0.3-1.3c0.2-0.4,0.5-0.6,0.8-0.8c0.3-0.1,0.7-0.2,1-0.1c0.4,0.1,0.7,0.3,1,0.7
			l8.2,11.4l8.2-11.4c0.3-0.4,0.6-0.6,1-0.7c0.4-0.1,0.7,0,1,0.1c0.3,0.1,0.6,0.4,0.8,0.8c0.2,0.4,0.3,0.8,0.3,1.3v13.3h-2.7V-469
			l-7.3,10.1c-0.2,0.3-0.4,0.4-0.6,0.6c-0.2,0.1-0.5,0.2-0.7,0.2c-0.3,0-0.5-0.1-0.7-0.2s-0.4-0.3-0.6-0.6l-7.3-10.1v10.4H-611.2z"
			/>
		<g>
			<g>
				<path d="M-672.6-458.2v-51.1h18.8c7,0,12.6,2.5,16.8,7.4c4.2,4.9,6.3,11,6.3,18.3c0,7.2-2.2,13.3-6.5,18.2
					c-4.3,4.9-10.6,7.3-18.7,7.3L-672.6-458.2L-672.6-458.2z M-663.1-465.7h7.7c4.1,0,7.6-1.5,10.5-4.6c2.9-3.1,4.3-7.7,4.3-13.8
					c0-5-1.3-9.2-3.8-12.7c-2.5-3.5-5.8-5.2-9.9-5.2h-8.8V-465.7z"/>
			</g>
			<g>
				<path fill="#C7C7C7" d="M-670.9-459.6v-51.1h18.8c7,0,12.6,2.5,16.8,7.4c4.2,4.9,6.3,11,6.3,18.3s-2.2,13.3-6.5,18.2
					c-4.3,4.9-10.6,7.3-18.7,7.3L-670.9-459.6L-670.9-459.6z M-661.4-467.1h7.7c4.1,0,7.6-1.5,10.5-4.6c2.9-3.1,4.3-7.7,4.3-13.8
					c0-5-1.3-9.2-3.8-12.7c-2.5-3.5-5.8-5.2-9.9-5.2h-8.8V-467.1z"/>
			</g>
		</g>
	</g>
</g>
<path fill="#68AF23" d="M-462.4-443.6c-0.1-0.3-0.3-0.6-0.4-0.9C-462.7-444.2-462.5-443.9-462.4-443.6z"/>
<g>
	<polygon fill="none" stroke="#6EC2BF" stroke-width="4" stroke-miterlimit="10" points="-373.1,-439.5 -452,-394 -530.8,-439.5 
		-530.8,-530.6 -452,-576.1 -373.1,-530.6 	"/>
	<g>
		<g>
			<path fill="#3C3B3C" d="M-450.9-503.7c-3-1.7-7.4,0.5-9.9,4.8c-2.5,4.3-2.1,9.3,0.9,10.9c3,1.7,7.4-0.5,9.9-4.8
				S-447.9-502-450.9-503.7z M-452.2-494.9c-0.9,2.2-2.9,3.6-4.3,2.9c-1.5-0.6-1.9-2.9-1-5.2c0.9-2.2,2.9-3.6,4.3-2.9
				C-451.7-499.5-451.2-497.2-452.2-494.9z"/>
			<path fill="#3C3B3C" d="M-499.7-501.5L-499.7-501.5c0,0,6.7,1.5,6.7,2.3l0,0l0,0c-0.2,0.8-1.9,1.9-2.8,2.2c-0.1,0-0.1,0-0.2,0
				c-1.1,0.2-2.4,0.3-4,0.3c-9.5-0.2-13.2,11.2-5.2,10.4c8-0.8,8.7-1.6,8.7-1.6l0,0l-1.2,4c-1.5,1-4.3,1.8-9.2,2.1
				c-14.2,0.8-10.6-7.5-10.3-9c0.4-1.5,7.5-9.1,12.9-7.8c5.4,1.2-7.5-2.1-0.2-8.6c5.3-4.7,11.8-4.4,15-3.9l-1.4,4.7
				C-495.1-505.9-504.2-504.8-499.7-501.5z"/>
			<path fill="#3C3B3C" d="M-493-499.1l-0.4,1.3c-0.6,0.3-1.4,0.6-2.4,0.8C-495-497.2-493.3-498.3-493-499.1z"/>
			<path fill="#3C3B3C" d="M-473.9-500.5c0,0.1,0,0.1-0.1,0.2l0,0l-5.6,14.7c0,0-4.7,0.5-9.4,0.9c-5.6,0-4.7-5.9-4.5-6.9
				c0-0.1,0-0.2,0-0.2c1-4.4,2.9-9.3,2.9-9.3c6.4-1.2,5.5,1,5.5,1c-5.7,11.9,0,13.1,1.7,11.3c1.4-1.4,3.3-8.7,4-11.7
				c0,0,0.3-1.3,2.8-1.3C-474.2-501.7-473.5-501.7-473.9-500.5z"/>
			<path fill="#717170" d="M-454.9-481.9c0,0.1,0,0.1-0.1,0.2l0,0l-4.3,11.2c0,0-3.6,0.4-7.2,0.6c-4.3,0-3.6-4.5-3.4-5.3
				c0-0.1,0-0.1,0-0.1c0.7-3.4,2.2-7.1,2.2-7.1c4.9-0.9,4.2,0.8,4.2,0.8c-4.3,9.1,0,9.9,1.3,8.6c1-1.1,2.5-6.6,3.1-8.9
				c0,0,0.2-1,2.1-1C-455.2-482.9-454.6-482.9-454.9-481.9z"/>
			<path fill="#3C3B3C" d="M-462.6-499.1c0,0-7.3-2.4-8.8,12.4l-5.1,0.6c0-0.5,1.2-18.2,14.5-16.9
				C-462.1-503-461.2-499.3-462.6-499.1z"/>
			<path fill="#717170" d="M-488-480.4l-4.1,13.4h3.2c0.8-2.9,2.1-3.4,2.1-3.4c3.6-0.1,5.5-1,6.4-1.8c0.4-0.3,0.6-0.7,0.8-1l0,0
				c0,0,0.1-0.1,0.1-0.3c0.1-0.3,0.3-0.7,0.4-1l0,0C-475.4-482.3-488-480.4-488-480.4z M-482.6-475.2c-0.5,1.4-1.6,2.2-2.5,1.9
				c-0.8-0.3-1.1-1.7-0.6-3c0.5-1.4,1.6-2.2,2.5-1.9C-482.3-478-482.1-476.6-482.6-475.2z"/>
			<path fill="#3C3B3C" d="M-445-503.5l-4.6,14.7h3.6c0.9-3.2,2.3-3.7,2.3-3.7c4-0.1,6-1.1,7-2c0.4-0.4,0.7-0.8,0.9-1.1l0,0
				c0,0,0.1-0.1,0.1-0.4c0.1-0.3,0.3-0.8,0.5-1.1l0,0C-431.2-505.7-445-503.5-445-503.5z M-439.1-497.9c-0.6,1.5-1.8,2.4-2.7,2.1
				c-0.9-0.4-1.2-1.9-0.6-3.3c0.6-1.5,1.8-2.4,2.7-2.1S-438.5-499.4-439.1-497.9z"/>
			<path fill="#424090" d="M-434.6-490c-0.1-0.4-0.1-0.7-0.1-0.7l0,0C-434.7-490.4-434.7-490.2-434.6-490z"/>
			<path fill="#424090" d="M-434.9-492.2L-434.9-492.2L-434.9-492.2L-434.9-492.2z"/>
			<path fill="#3C3B3C" d="M-426.1-500.3c-0.7,0-1.6,0.1-2.4,0.3C-427.8-500.2-427-500.3-426.1-500.3z"/>
			<path fill="#3C3B3C" d="M-424.4-503.7L-424.4-503.7c-0.2,0-0.3,0-0.3,0c-0.8,0-1.8,0.1-2.7,0.3c-0.1,0-0.2,0-0.2,0.1
				c-6.1,1.7-7,7.9-7.2,8.8l0,0v0.1c0,0.5,0.1,1.1,0.2,1.7c0,0.3,0.1,0.5,0.1,0.8c0.3,0.9,1.1,2.3,3.6,2.3h6.6c0,0,0-0.1,0.1-0.2
				l0,0l2.8-13.8C-422.1-503.7-423.1-503.8-424.4-503.7z M-430.2-492.4c-1-0.4-1-2.5-0.1-4.8c0.9-2.2,2.4-3.7,3.4-3.3
				c1,0.4,1,2.5,0.1,4.8C-427.7-493.5-429.2-492-430.2-492.4z"/>
			<path fill="#717170" d="M-471-472.5l-1.4,3.1l0,0c-0.1,0-0.2,0.1-0.3,0.1c-0.9,0.3-2.2,0.6-2.3,0.7c-7.4,1.1-0.2-13.4-0.2-13.4
				c1.5-0.7,4.1,0,4.1,0c-3.1,5.3-3.1,9.2-2.9,9.7c0.2,0.4,2-0.2,2.8-0.2C-471.1-472.6-471-472.5-471-472.5z"/>
			<path fill="#717170" d="M-449.2-478.7c0,0,0.9,0.3,1.5,1.1c0.2,0.3,0.3,0.6,0.5,1l0,0c0.7,2,0.4,4.9-8,5.8h-0.5v-2.5
				c0,0,3.3-0.3,4.8-1c-0.2-1-1.5-2.2-1.7-2.4l0,0l0,0c0,0-5.2-6.2,6.3-7.4c0,0,1.1,0.8,0,2.3C-446.3-481.8-454.5-480.4-449.2-478.7
				z"/>
		</g>
		<path fill="#343434" d="M-507.2-448c0,0,63.4-15,77.2-24.4C-430-472.4-448.1-452.3-507.2-448z"/>
		<path fill="#939393" stroke="#6B6B6B" stroke-width="2" stroke-miterlimit="10" d="M-476.6-444.6c0,0,44.6-15.1,53-30.2l0.5-0.9
			l-9.3-6.5l15.8-2.2l10-19.9l1.7,17.4l18.6-2.2l-16.3,13.6l1.2,15.4l-11.8-9.3C-413.1-469.3-445.3-448.9-476.6-444.6z"/>
	</g>
</g>
<g>
	<polygon fill="none" stroke="#6EC2C0" stroke-width="4" stroke-miterlimit="10" points="-462.5,-289.4 -541.4,-243.8 
		-620.2,-289.4 -620.2,-380.4 -541.4,-425.9 -462.5,-380.4 	"/>
	<g>
		<g>
			<path fill="#7BCCE8" d="M-503.5-327.8l2.4-35.5l-20.1,5.6l-0.5,7.6l5.9-1.8c0,0-1.1,14.5-1.3,19.4c-0.2,5-2.7,6.5-4.8,6.4
				c-2.1-0.1-9.4-5.5-9.4-5.5l0.1-1.2c9.9-2.7,9.4-10.8,9.4-10.8c1.1-11.4-12.2-10.7-12.2-10.7l-23.2,6l-0.5,8l2.6-0.2l-0.6,8.3
				l-12.4-13.3l-16.1,4.6l-0.5,8l4.4-1.6l-1.5,21.6l-4.4,1.3l-0.5,7.6l18.7-5.3l1-16.2l7.7,10.5l1.9,2.7l7.8-2.2
				c0,0,3.8-7.5,10.8-3.1l0,0c6,5.4,17.7,5.6,17.7,5.6C-503.5-313.8-503.5-327.8-503.5-327.8z M-541.9-344.5c0,0,8.2-3,7.8,2.1
				c-0.4,5.1-8.4,5.2-8.4,5.2L-541.9-344.5z"/>
			
				<ellipse transform="matrix(6.755385e-002 -0.9977 0.9977 6.755385e-002 -104.5769 -855.6589)" fill="#7BCCE8" cx="-510.1" cy="-371.9" rx="8.6" ry="8.3"/>
		</g>
		<g>
			<path fill="#515050" d="M-502.1-328.5l2.4-35.5l-20.1,5.6l-0.5,7.6l5.9-1.8c0,0-1.1,14.5-1.3,19.4c-0.2,5-2.7,6.5-4.8,6.4
				s-9.4-5.5-9.4-5.5l0.1-1.2c9.9-2.7,9.4-10.8,9.4-10.8c1.1-11.4-12.2-10.7-12.2-10.7l-23.2,6l-0.5,8l2.6-0.2l-0.6,8.3l-12.4-13.3
				l-16.1,4.6l-0.5,8l4.4-1.6l-1.5,21.6l-4.4,1.3l-0.5,7.6l18.7-5.3l1-16.2l7.7,10.5l1.9,2.7l7.8-2.2c0,0,3.8-7.5,10.8-3.1l0,0
				c6,5.4,17.7,5.6,17.7,5.6C-502.2-314.5-502.1-328.5-502.1-328.5z M-540.5-345.1c0,0,8.2-3,7.8,2.1c-0.4,5.1-8.4,5.2-8.4,5.2
				L-540.5-345.1z"/>
			
				<ellipse transform="matrix(6.755385e-002 -0.9977 0.9977 6.755385e-002 -102.5711 -854.9121)" fill="#515050" cx="-508.7" cy="-372.6" rx="8.6" ry="8.3"/>
		</g>
	</g>
</g>
</svg>
